# 3ds Max Wavefront OBJ Exporter v0.99 - (c)2007 guruware
# File Created: 29.03.2025 16:33:42

mtllib Carro.mtl

#
# object Carro
#

v  17.3833 9.0695 -8.7683
v  17.3772 8.1934 -10.1934
v  15.2911 8.2472 -10.2134
v  14.6783 9.3089 -8.9430
v  19.3076 8.2155 -9.1985
v  18.6561 7.6459 -10.1632
v  21.5007 6.2186 -9.3184
v  21.8495 4.7334 -9.3332
v  20.7483 4.7672 -10.0223
v  20.2283 6.2191 -10.0581
v  19.7067 6.8110 -10.1226
v  22.2093 2.0941 -9.1839
v  21.0694 2.1903 -9.7441
v  12.5213 8.2936 -9.6806
v  12.2899 9.3684 -9.0436
v  13.1146 7.1436 -10.1900
v  11.1729 7.6977 -9.8543
v  12.0587 5.5315 -10.0991
v  9.8638 5.7279 -9.8498
v  11.4580 3.4391 -9.8836
v  9.1998 3.5020 -9.6977
v  11.3130 2.0220 -9.6188
v  9.1022 2.2363 -9.6046
v  11.2210 1.6298 -9.0564
v  8.9803 1.6781 -9.0182
v  5.6841 5.8374 -9.8345
v  6.0997 8.1864 -9.8325
v  10.9541 8.3669 -9.6244
v  10.4712 9.3458 -9.1153
v  6.2628 9.3822 -9.2033
v  4.5377 10.1740 -8.8204
v  8.2043 10.2811 -8.6332
v  4.6402 12.1015 -8.1321
v  4.9768 12.6186 -7.7647
v  8.6756 10.8574 -8.2501
v  2.7495 12.8997 -7.8546
v  -2.2260 10.3400 -8.9728
v  1.1042 13.4689 -7.6197
v  -1.3963 13.9061 -7.3997
v  -4.6012 14.1694 -7.1653
v  -10.4479 10.8229 -8.4890
v  -2.6071 9.5987 -9.4043
v  -10.2235 10.2957 -9.2797
v  3.7072 8.3594 -9.8363
v  -2.8795 8.7579 -9.8277
v  -10.4601 9.1942 -9.7784
v  -2.7378 6.0655 -9.8158
v  -9.4511 6.1999 -9.9372
v  3.1054 13.4174 -7.4765
v  1.7350 13.8799 -7.2735
v  -0.9616 14.4044 -7.0220
v  -4.3552 14.7018 -6.7696
v  -10.9999 14.2507 -6.5418
v  -11.1216 13.5678 -6.9933
v  -13.5397 9.5098 -9.7568
v  -13.5934 10.5748 -9.2819
v  -16.7280 9.5571 -9.6252
v  -17.0204 10.6455 -9.1050
v  -20.3739 9.3790 -9.2207
v  -20.5538 10.4905 -8.7495
v  -11.7597 7.2152 -10.3031
v  -13.8438 8.2204 -10.3344
v  -16.1928 8.1800 -10.3403
v  -19.6794 8.4706 -9.6344
v  -22.1222 9.9575 -8.5923
v  -22.0571 10.3777 -8.4117
v  -20.7155 8.5213 -9.3742
v  -22.2449 8.4973 -8.9426
v  -20.9402 5.6794 -9.6616
v  -22.2877 5.6740 -9.1391
v  -18.6034 6.7705 -10.2858
v  -22.9590 8.5412 -8.7053
v  -23.0501 9.7844 -8.3658
v  -22.7634 10.3114 -8.0610
v  -23.4719 9.9763 -7.7202
v  -23.1997 10.2668 -7.6339
v  -23.1372 5.6092 -8.7257
v  -19.5298 4.9234 -10.1202
v  -19.9699 3.0367 -9.7688
v  -21.4725 3.0398 -9.1834
v  -22.8618 3.0303 -8.4830
v  -10.6308 5.2511 -10.2503
v  -8.7385 3.6581 -9.9794
v  -10.1926 3.4510 -10.0740
v  -8.6388 1.9896 -9.6443
v  -10.1382 2.0000 -9.7578
v  -3.0541 3.9554 -9.9651
v  -2.7709 1.8390 -9.4703
v  5.3985 3.4925 -9.8140
v  5.4194 2.3110 -9.6718
v  5.2346 1.6724 -8.9506
v  21.0316 1.6146 -9.6141
v  22.1535 1.7142 -9.0245
v  20.4084 2.1871 -9.8065
v  20.3013 4.6302 -10.0161
v  20.4144 1.5534 -9.6759
v  19.9456 5.6311 -10.0692
v  19.4099 6.4465 -10.1098
v  18.4294 7.2705 -10.1513
v  17.2637 7.7684 -10.1737
v  15.3768 7.7977 -10.1965
v  13.4803 6.8401 -10.1732
v  12.4447 5.3731 -10.0860
v  11.9979 3.3671 -9.8843
v  11.9804 2.0352 -9.6615
v  11.9821 1.6231 -9.1664
v  -13.6413 13.6245 -6.5444
v  -13.7506 12.9970 -6.9667
v  -13.7669 11.1955 -8.0872
v  -17.4243 11.1059 -7.9150
v  -17.4080 11.9901 -6.9410
v  -20.9153 10.7687 -7.7624
v  -20.9110 10.9741 -7.1192
v  -17.7182 12.4675 -6.3762
v  -19.3906 2.9756 -9.8192
v  -19.0959 4.8730 -10.1426
v  -18.1423 6.5435 -10.2839
v  -16.0633 7.7883 -10.3367
v  -14.0880 7.8189 -10.3366
v  -12.3086 6.9187 -10.3201
v  -11.0732 5.2382 -10.2461
v  -10.7616 3.6402 -10.0916
v  -10.7555 1.9106 -9.6940
v  -24.4875 3.0099 -7.5065
v  -23.0440 2.0934 -7.6078
v  -19.3997 1.6623 -6.3946
v  15.2911 8.2472 10.1895
v  17.3772 8.1934 10.1696
v  17.3833 9.0695 8.7444
v  14.6783 9.3089 8.9191
v  19.3076 8.2155 9.1746
v  18.6561 7.6459 10.1393
v  20.7483 4.7672 9.9984
v  21.8495 4.7334 9.3094
v  21.5007 6.2186 9.2945
v  20.2283 6.2191 10.0342
v  19.7067 6.8110 10.0987
v  21.0694 2.1903 9.7202
v  22.2093 2.0941 9.1601
v  12.5213 8.2936 9.6568
v  12.2899 9.3684 9.0197
v  13.1146 7.1436 10.1662
v  11.1729 7.6977 9.8304
v  12.0587 5.5315 10.0753
v  9.8638 5.7279 9.8259
v  9.1998 3.5020 9.6739
v  11.4580 3.4391 9.8597
v  9.1022 2.2363 9.5807
v  11.3130 2.0220 9.5950
v  8.9803 1.6781 8.9944
v  11.2210 1.6298 9.0325
v  6.0997 8.1864 9.8086
v  5.6841 5.8374 9.8106
v  10.9541 8.3669 9.6005
v  10.4712 9.3458 9.0914
v  6.2628 9.3822 9.1794
v  8.2043 10.2811 8.6094
v  4.5377 10.1740 8.7965
v  4.9768 12.6186 7.7408
v  4.6402 12.1015 8.1083
v  8.6756 10.8574 8.2262
v  2.7495 12.8997 7.8307
v  -2.2260 10.3400 8.9490
v  1.1042 13.4689 7.5959
v  -1.3963 13.9061 7.3758
v  -4.6012 14.1694 7.1415
v  -2.6071 9.5987 9.3805
v  -10.4479 10.8229 8.4652
v  -10.2235 10.2957 9.2558
v  3.7072 8.3594 9.8124
v  -2.8795 8.7579 9.8038
v  -10.4601 9.1942 9.7545
v  -2.7378 6.0655 9.7920
v  -9.4511 6.1999 9.9134
v  3.1054 13.4174 7.4527
v  1.7350 13.8799 7.2497
v  -0.9616 14.4044 6.9982
v  -4.3552 14.7018 6.7457
v  -10.9999 14.2507 6.5179
v  -11.1216 13.5678 6.9694
v  -13.5397 9.5098 9.7329
v  -13.5934 10.5748 9.2581
v  -16.7280 9.5571 9.6013
v  -17.0204 10.6455 9.0812
v  -20.3739 9.3790 9.1968
v  -20.5538 10.4905 8.7257
v  -13.8438 8.2204 10.3106
v  -11.7597 7.2152 10.2793
v  -16.1928 8.1800 10.3164
v  -19.6794 8.4706 9.6105
v  -22.1222 9.9575 8.5685
v  -22.0571 10.3777 8.3879
v  -22.2449 8.4973 8.9188
v  -20.7155 8.5213 9.3503
v  -20.9402 5.6794 9.6378
v  -22.2877 5.6740 9.1152
v  -18.6034 6.7705 10.2620
v  -23.0501 9.7844 8.3419
v  -22.9590 8.5412 8.6814
v  -22.7634 10.3114 8.0371
v  -23.1997 10.2668 7.6101
v  -23.4719 9.9763 7.6964
v  -23.1372 5.6092 8.7019
v  -19.5298 4.9234 10.0963
v  -21.4725 3.0398 9.1596
v  -19.9699 3.0367 9.7449
v  -22.8618 3.0303 8.4591
v  -10.6308 5.2511 10.2265
v  -10.1926 3.4510 10.0501
v  -8.7385 3.6581 9.9556
v  -8.6388 1.9896 9.6205
v  -10.1382 2.0000 9.7339
v  -3.0541 3.9554 9.9412
v  -2.7709 1.8390 9.4464
v  5.3985 3.4925 9.7901
v  5.4194 2.3110 9.6480
v  5.2346 1.6724 8.9268
v  21.0316 1.6146 9.5903
v  22.1535 1.7142 9.0007
v  20.3013 4.6302 9.9923
v  20.4084 2.1871 9.7827
v  20.4144 1.5534 9.6521
v  19.9456 5.6311 10.0453
v  19.4099 6.4465 10.0859
v  18.4294 7.2705 10.1275
v  17.2637 7.7684 10.1498
v  15.3768 7.7977 10.1727
v  13.4803 6.8401 10.1494
v  12.4447 5.3731 10.0622
v  11.9979 3.3671 9.8604
v  11.9804 2.0352 9.6377
v  11.9821 1.6231 9.1425
v  -13.6413 13.6245 6.5206
v  -13.7506 12.9970 6.9428
v  -13.7669 11.1955 8.0633
v  -17.4243 11.1059 7.8911
v  -17.4080 11.9901 6.9172
v  -20.9153 10.7687 7.7386
v  -20.9110 10.9741 7.0954
v  -17.7182 12.4675 6.3524
v  -19.3906 2.9756 9.7953
v  -19.0959 4.8730 10.1187
v  -18.1423 6.5435 10.2601
v  -16.0633 7.7883 10.3129
v  -14.0880 7.8189 10.3128
v  -12.3086 6.9187 10.2963
v  -11.0732 5.2382 10.2223
v  -10.7616 3.6402 10.0678
v  -10.7555 1.9106 9.6702
v  -24.4875 3.0099 7.4826
v  -19.3997 1.6623 6.3707
v  -23.0440 2.0934 7.5839
v  14.8460 9.8699 -7.5939
v  17.7589 9.4403 -6.9456
v  19.6709 8.6281 -8.3145
v  20.8027 8.1059 -8.3502
v  19.8315 8.9429 -6.2849
v  21.8299 7.9643 -7.2193
v  22.4177 8.0437 -5.4631
v  22.8869 7.6206 -6.0702
v  24.5648 6.9363 -4.2398
v  24.5896 6.8804 -4.5745
v  10.8157 10.2608 -8.2206
v  8.7324 10.8697 -8.0253
v  10.9550 10.2703 -7.9888
v  5.0418 12.6704 -7.4146
v  -23.3377 10.5935 -6.5213
v  -23.8795 10.6244 -6.3573
v  1.8087 13.9181 -6.9799
v  3.1621 13.4578 -7.1646
v  -0.8779 14.4882 -6.5838
v  -0.5485 14.6996 -3.6815
v  2.5428 14.0760 -4.0576
v  -4.3532 14.7724 -6.2997
v  -11.0253 14.3081 -6.1286
v  -13.7508 13.7741 -5.8951
v  -24.2743 10.7596 -5.0769
v  -21.8360 11.3597 -4.4600
v  -17.8018 12.6338 -5.5358
v  -24.6227 10.7872 -5.4374
v  -25.3697 10.9427 -3.9622
v  -24.7800 10.8731 -3.4413
v  -4.0159 14.9886 -3.4783
v  -10.7086 14.6062 -3.4057
v  -17.7642 12.9455 -2.8713
v  -13.7017 14.0595 -3.2949
v  -22.5950 11.3045 -2.6118
v  -25.2996 10.9672 -0.0119
v  -22.6654 11.3570 -0.0119
v  -10.6298 14.7064 -0.0119
v  -3.9576 15.0645 -0.0119
v  2.8494 14.1356 -0.0119
v  4.2044 13.6956 -0.0119
v  3.8879 13.6202 -4.3340
v  -0.4941 14.7878 -0.0119
v  -26.0174 11.0878 -0.0119
v  -17.7694 13.0226 -0.0119
v  -13.6563 14.1656 -0.0119
v  14.8460 9.8699 7.5701
v  17.7589 9.4403 6.9217
v  19.6709 8.6281 8.2907
v  20.8027 8.1059 8.3263
v  21.8299 7.9643 7.1954
v  19.8315 8.9429 6.2611
v  22.8869 7.6206 6.0464
v  22.4177 8.0437 5.4393
v  24.5896 6.8804 4.5506
v  24.5648 6.9363 4.2160
v  10.8157 10.2608 8.1967
v  8.7324 10.8697 8.0015
v  10.9550 10.2703 7.9650
v  5.0418 12.6704 7.3907
v  -23.3377 10.5935 6.4975
v  -23.8795 10.6244 6.3334
v  1.8087 13.9181 6.9560
v  3.1621 13.4578 7.1408
v  -0.8779 14.4882 6.5600
v  -0.5485 14.6996 3.6577
v  2.5428 14.0760 4.0337
v  -4.3532 14.7724 6.2758
v  -11.0253 14.3081 6.1048
v  -13.7508 13.7741 5.8713
v  -21.8360 11.3597 4.4361
v  -24.2743 10.7596 5.0530
v  -17.8018 12.6338 5.5119
v  -24.6226 10.7872 5.4135
v  -24.7799 10.8731 3.4175
v  -25.3697 10.9427 3.9384
v  -4.0159 14.9886 3.4545
v  -10.7086 14.6062 3.3819
v  -13.7017 14.0595 3.2710
v  -17.7642 12.9455 2.8474
v  -22.5950 11.3045 2.5880
v  3.8879 13.6202 4.3101
v  24.6543 6.2947 -5.3714
v  23.6737 6.4394 -6.8737
v  22.7609 6.5362 -7.9950
v  22.9645 6.0300 -8.1864
v  23.9069 5.9115 -7.1393
v  24.6546 5.7921 -5.8118
v  24.2816 4.3571 -7.0386
v  23.0076 4.6146 -8.3845
v  21.1405 7.0050 -9.0786
v  23.2466 1.9996 -8.4176
v  24.4449 2.0119 -7.1757
v  25.0855 4.0069 -5.7595
v  25.2882 2.1751 -5.9445
v  25.7476 3.8542 -4.0708
v  25.9152 2.1705 -4.2657
v  26.1534 3.8978 -2.0650
v  26.3457 2.1771 -2.1402
v  26.2417 3.8850 -0.0119
v  26.4096 2.1690 -0.0119
v  23.2466 1.7391 -8.4176
v  23.6737 6.4394 6.8498
v  24.6543 6.2947 5.3475
v  22.7609 6.5362 7.9712
v  22.9645 6.0300 8.1625
v  23.9069 5.9115 7.1154
v  24.6546 5.7921 5.7880
v  24.2816 4.3571 7.0147
v  23.0076 4.6146 8.3606
v  21.1405 7.0050 9.0547
v  23.2466 1.9996 8.3937
v  24.4449 2.0119 7.1519
v  25.0855 4.0069 5.7356
v  25.2882 2.1751 5.9206
v  25.9152 2.1705 4.2418
v  25.7476 3.8542 4.0469
v  26.3457 2.1771 2.1164
v  26.1534 3.8978 2.0411
v  23.2466 1.7391 8.3937
v  -23.9528 10.0661 -6.5332
v  -24.6009 9.8696 -5.2277
v  -24.0126 9.8838 -6.6466
v  -25.0318 9.8990 -3.7109
v  -24.8676 8.4064 -5.3150
v  -24.2441 8.4258 -6.8657
v  -25.1428 8.2641 -3.8578
v  -23.6225 8.4957 -7.9344
v  -24.1641 5.6875 -8.0036
v  -25.0578 5.6792 -6.9259
v  -25.7007 5.6977 -5.3971
v  -26.0285 5.6505 -3.9456
v  -25.3277 4.2748 -6.8396
v  -26.0615 4.4256 -4.3581
v  -26.3669 4.4465 -0.0119
v  -26.2690 5.6485 -0.0119
v  -25.7682 3.0425 -4.3820
v  -25.4554 10.0348 -0.0119
v  -25.6725 8.3573 -0.0119
v  -26.0156 3.0634 -0.0119
v  -23.9528 10.0661 6.5093
v  -24.6009 9.8696 5.2038
v  -24.0126 9.8838 6.6227
v  -25.0318 9.8990 3.6871
v  -24.8676 8.4064 5.2911
v  -24.2441 8.4258 6.8418
v  -25.1428 8.2641 3.8340
v  -24.1641 5.6875 7.9798
v  -23.6225 8.4957 7.9105
v  -25.0578 5.6792 6.9020
v  -25.7007 5.6977 5.3732
v  -26.0285 5.6505 3.9217
v  -25.3277 4.2748 6.8158
v  -26.0615 4.4256 4.3343
v  -25.7682 3.0425 4.3581
v  6.5942 10.7682 -10.1983
v  6.1653 10.7033 -10.7470
v  5.8875 11.2004 -10.5915
v  6.3435 11.3143 -9.8600
v  5.6653 10.7150 -11.2667
v  5.3859 11.1574 -11.0797
v  6.3144 10.3718 -10.8292
v  6.7973 10.3132 -10.3296
v  6.9108 10.7945 -9.7374
v  7.3969 10.2587 -9.6321
v  6.3405 11.2920 -9.6422
v  6.8900 10.8120 -9.4959
v  7.3238 10.2718 -9.3843
v  7.0513 9.8431 -8.8674
v  7.0510 10.0623 -8.7790
v  6.4689 10.2719 -9.2727
v  6.3626 9.9883 -9.4911
v  5.7865 10.4002 -11.3444
v  6.1269 10.0818 -10.6602
v  5.6521 10.1269 -11.1287
v  6.5922 10.0489 -10.1706
v  7.1820 9.9766 -9.4907
v  7.6073 9.9269 -9.1131
v  7.7403 10.2039 -9.1931
v  8.0191 10.1795 -8.9040
v  8.1524 9.8822 -8.8583
v  8.3422 10.1757 -8.6910
v  7.3330 9.8515 -8.8473
v  5.5175 9.9285 -9.9946
v  5.7278 9.9494 -9.5999
v  5.8884 10.2431 -9.2781
v  5.1463 9.9860 -10.7453
v  5.3644 10.1262 -11.3085
v  4.8293 10.0921 -11.3291
v  6.5942 10.7682 10.1744
v  6.3435 11.3143 9.8361
v  5.8875 11.2004 10.5677
v  6.1653 10.7033 10.7231
v  5.6653 10.7150 11.2428
v  5.3859 11.1574 11.0558
v  6.3144 10.3718 10.8054
v  6.7973 10.3132 10.3057
v  6.9108 10.7945 9.7135
v  7.3969 10.2587 9.6083
v  6.3405 11.2920 9.6183
v  6.8900 10.8120 9.4721
v  7.3238 10.2718 9.3604
v  7.0513 9.8431 8.8435
v  6.3626 9.9883 9.4673
v  6.4689 10.2719 9.2489
v  7.0510 10.0623 8.7552
v  5.7865 10.4002 11.3205
v  5.6521 10.1269 11.1049
v  6.1269 10.0818 10.6364
v  6.5922 10.0489 10.1467
v  7.1820 9.9765 9.4668
v  7.6073 9.9269 9.0892
v  7.7403 10.2039 9.1692
v  8.0191 10.1795 8.8802
v  8.1524 9.8822 8.8345
v  8.3422 10.1757 8.6672
v  7.3330 9.8515 8.8235
v  5.5175 9.9285 9.9707
v  5.7278 9.9494 9.5761
v  5.8884 10.2431 9.2543
v  5.1463 9.9860 10.7214
v  5.3644 10.1262 11.2846
v  4.8293 10.0921 11.3052
v  5.5306 11.3995 -9.9631
v  5.1877 11.3037 -10.6248
v  5.2875 10.6674 -10.4391
v  5.0394 11.2335 -10.9108
v  4.9122 11.1514 -11.1565
v  4.7833 10.9230 -11.4054
v  5.8242 10.7406 -9.4013
v  4.6670 10.4198 -11.6320
v  5.6845 11.3052 -9.6665
v  5.5306 11.3995 9.9392
v  5.2875 10.6674 10.4152
v  5.1877 11.3037 10.6010
v  5.0394 11.2335 10.8870
v  4.9122 11.1514 11.1327
v  4.7833 10.9230 11.3816
v  5.8242 10.7405 9.3774
v  4.6670 10.4198 11.6082
v  5.6845 11.3052 9.6427
v  7.5276 10.1906 -9.0920
v  7.7905 10.1374 -8.7306
v  6.2017 10.7330 -9.3927
v  6.0549 11.3039 -9.6542
v  7.5276 10.1906 9.0681
v  7.7905 10.1374 8.7068
v  6.2017 10.7330 9.3688
v  6.0549 11.3039 9.6304
v  5.2780 10.7351 -11.4699
v  5.4099 10.4118 -11.5580
v  5.2780 10.7351 11.4460
v  5.4099 10.4118 11.5342
v  11.9821 1.6231 -6.7726
v  12.7100 1.6107 -0.0119
v  5.9626 1.6538 -0.0119
v  5.3374 1.6557 -6.4414
v  -10.7182 1.7058 -6.5530
v  -11.4505 1.7039 -0.0119
v  -20.6991 1.7580 -0.0119
v  20.4610 1.4012 -0.0119
v  20.4144 1.5534 -6.7726
v  -19.3906 2.9756 -6.3946
v  -10.7616 3.6402 -6.3946
v  11.9804 2.0352 -6.7726
v  20.4084 2.1871 -6.7726
v  11.9979 3.3671 -6.7726
v  20.3013 4.6302 -6.7726
v  12.4447 5.3731 -6.7726
v  19.9456 5.6311 -6.7726
v  13.4803 6.8401 -6.7726
v  19.4099 6.4465 -6.7726
v  15.3768 7.7977 -6.7726
v  17.2637 7.7684 -6.7726
v  18.4294 7.2705 -6.7726
v  -19.0959 4.8730 -6.3946
v  -11.0732 5.2382 -6.3946
v  -18.1423 6.5435 -6.3946
v  -12.3086 6.9187 -6.3946
v  -16.0633 7.7883 -6.3946
v  -14.0880 7.8189 -6.3946
v  -19.3997 1.6623 -7.7187
v  11.9821 1.6231 6.7487
v  5.3374 1.6557 6.4176
v  -10.7182 1.7058 6.5292
v  20.4144 1.5534 6.7487
v  -10.7616 3.6402 6.3707
v  -19.3906 2.9756 6.3707
v  20.4084 2.1871 6.7487
v  11.9804 2.0352 6.7487
v  20.3013 4.6302 6.7487
v  11.9979 3.3671 6.7487
v  19.9456 5.6311 6.7487
v  12.4447 5.3731 6.7487
v  19.4099 6.4465 6.7487
v  13.4803 6.8401 6.7487
v  15.3768 7.7977 6.7487
v  18.4294 7.2705 6.7487
v  17.2637 7.7684 6.7487
v  -11.0732 5.2382 6.3707
v  -19.0959 4.8730 6.3707
v  -12.3086 6.9187 6.3707
v  -18.1423 6.5435 6.3707
v  -14.0880 7.8189 6.3707
v  -16.0633 7.7883 6.3707
v  -19.3997 1.6623 7.6949
v  -25.9380 7.3505 -2.3008
v  -25.9380 7.3505 2.2763
v  -25.6528 8.7480 2.2763
v  -25.6528 8.7480 -2.3008
# 562 vertices

vn 0.1705 0.9097 -0.3786
vn 0.1304 0.5010 -0.8555
vn -0.0254 0.4205 -0.9069
vn 0.0707 0.8578 -0.5090
vn 0.3391 0.7226 -0.6024
vn 0.2352 0.3670 -0.9000
vn 0.5453 0.3055 -0.7806
vn 0.5857 0.0906 -0.8055
vn 0.2949 0.0163 -0.9554
vn 0.3169 0.1453 -0.9373
vn 0.2794 0.2611 -0.9240
vn 0.5001 -0.1908 -0.8447
vn 0.2733 -0.1450 -0.9509
vn -0.0916 0.4250 -0.9006
vn 0.0393 0.6200 -0.7836
vn -0.0817 0.1219 -0.9892
vn -0.0491 0.2105 -0.9764
vn -0.0626 -0.0464 -0.9970
vn -0.0534 -0.0115 -0.9985
vn -0.0543 -0.1310 -0.9899
vn -0.0226 -0.0672 -0.9975
vn -0.0486 -0.5502 -0.8336
vn -0.0203 -0.4185 -0.9080
vn -0.0366 -0.9563 -0.2902
vn -0.0120 -0.9238 -0.3827
vn -0.0025 -0.0041 -1.0000
vn 0.0139 0.2374 -0.9713
vn 0.0050 0.3981 -0.9173
vn 0.0457 0.5684 -0.8215
vn 0.0206 0.4682 -0.8834
vn 0.0311 0.4100 -0.9116
vn 0.0788 0.4968 -0.8643
vn 0.0700 0.4333 -0.8985
vn 0.2698 0.7764 -0.5696
vn 0.2594 0.7662 -0.5879
vn 0.0524 0.4656 -0.8834
vn -0.0006 0.4502 -0.8929
vn 0.0267 0.5056 -0.8624
vn -0.0071 0.5100 -0.8602
vn -0.0441 0.5237 -0.8507
vn -0.0150 0.6723 -0.7401
vn 0.0295 0.4675 -0.8835
vn 0.0505 0.6515 -0.7570
vn 0.0173 0.2450 -0.9694
vn 0.0092 0.2258 -0.9741
vn 0.0465 0.2744 -0.9605
vn 0.0081 0.0325 -0.9994
vn 0.1084 0.0671 -0.9918
vn 0.2264 0.8065 -0.5461
vn 0.1601 0.8369 -0.5234
vn 0.0754 0.8408 -0.5361
vn -0.0142 0.8671 -0.4979
vn -0.1326 0.8467 -0.5153
vn -0.0979 0.5134 -0.8525
vn 0.0045 0.4076 -0.9131
vn 0.0181 0.6879 -0.7256
vn -0.0770 0.4239 -0.9024
vn -0.0588 0.7237 -0.6876
vn -0.1838 0.3184 -0.9300
vn -0.1510 0.7173 -0.6802
vn 0.1070 0.0878 -0.9904
vn 0.0575 0.2263 -0.9724
vn -0.0487 0.2378 -0.9701
vn -0.1960 0.2604 -0.9454
vn -0.2487 0.3445 -0.9052
vn -0.2859 0.7343 -0.6156
vn -0.2517 0.1933 -0.9483
vn -0.2868 0.1569 -0.9451
vn -0.3402 0.0195 -0.9402
vn -0.3955 -0.0346 -0.9178
vn -0.1581 0.0853 -0.9837
vn -0.5341 0.1163 -0.8374
vn -0.5622 0.3565 -0.7462
vn -0.3805 0.8228 -0.4223
vn -0.7535 0.4617 -0.4681
vn -0.4622 0.8048 -0.3724
vn -0.5092 -0.0521 -0.8590
vn -0.2031 -0.0697 -0.9767
vn -0.2342 -0.5038 -0.8314
vn -0.3558 -0.5121 -0.7818
vn -0.4406 -0.3701 -0.8179
vn 0.1290 -0.0232 -0.9914
vn 0.0393 -0.0823 -0.9958
vn 0.0321 -0.1585 -0.9868
vn 0.0198 -0.7424 -0.6697
vn 0.0346 -0.7222 -0.6908
vn 0.0097 -0.0744 -0.9972
vn -0.0062 -0.7591 -0.6509
vn 0.0221 -0.0664 -0.9975
vn 0.0047 -0.4563 -0.8898
vn -0.0001 -0.9377 -0.3476
vn 0.2510 -0.7360 -0.6287
vn 0.3072 -0.8172 -0.4876
vn -0.6534 -0.1261 -0.7464
vn -0.6454 -0.1831 -0.7416
vn -0.5332 -0.6537 -0.5370
vn -0.5655 -0.3275 -0.7569
vn -0.4876 -0.4733 -0.7336
vn -0.3389 -0.5897 -0.7331
vn -0.1285 -0.6643 -0.7364
vn 0.1478 -0.6407 -0.7534
vn 0.4099 -0.5137 -0.7537
vn 0.5832 -0.3255 -0.7443
vn 0.6565 -0.1812 -0.7323
vn 0.6158 -0.3880 -0.6857
vn 0.6165 -0.7324 -0.2891
vn -0.2142 0.7972 -0.5645
vn -0.1426 0.5476 -0.8245
vn -0.0289 0.7251 -0.6880
vn -0.0787 0.8406 -0.5359
vn -0.1887 0.7132 -0.6751
vn -0.1406 0.9434 -0.3003
vn -0.2616 0.9217 -0.2863
vn -0.2761 0.8496 -0.4494
vn 0.5318 -0.5089 -0.6769
vn 0.5710 -0.3017 -0.7635
vn 0.4314 -0.4763 -0.7662
vn 0.1659 -0.6173 -0.7690
vn -0.1413 -0.6253 -0.7675
vn -0.3972 -0.4926 -0.7743
vn -0.5822 -0.3110 -0.7512
vn -0.6676 -0.1768 -0.7232
vn -0.5767 -0.6560 -0.4869
vn -0.6121 -0.5951 -0.5207
vn -0.3969 -0.9173 -0.0332
vn 0.1978 -0.9350 -0.2945
vn -0.0254 0.4205 0.9069
vn 0.1304 0.5010 0.8555
vn 0.1705 0.9097 0.3786
vn 0.0707 0.8578 0.5090
vn 0.3391 0.7226 0.6024
vn 0.2352 0.3670 0.9000
vn 0.2949 0.0163 0.9554
vn 0.5857 0.0906 0.8055
vn 0.5453 0.3055 0.7806
vn 0.3169 0.1453 0.9373
vn 0.2794 0.2611 0.9240
vn 0.2733 -0.1450 0.9509
vn 0.5001 -0.1908 0.8447
vn -0.0916 0.4250 0.9006
vn 0.0393 0.6200 0.7836
vn -0.0817 0.1219 0.9892
vn -0.0491 0.2105 0.9764
vn -0.0626 -0.0464 0.9970
vn -0.0534 -0.0115 0.9985
vn -0.0226 -0.0672 0.9975
vn -0.0543 -0.1310 0.9899
vn -0.0203 -0.4185 0.9080
vn -0.0486 -0.5502 0.8336
vn -0.0120 -0.9238 0.3827
vn -0.0366 -0.9563 0.2902
vn 0.0139 0.2374 0.9713
vn -0.0025 -0.0041 1.0000
vn 0.0050 0.3981 0.9173
vn 0.0457 0.5684 0.8215
vn 0.0206 0.4682 0.8834
vn 0.0788 0.4968 0.8643
vn 0.0311 0.4100 0.9116
vn 0.2698 0.7764 0.5696
vn 0.0700 0.4333 0.8985
vn 0.2594 0.7662 0.5879
vn 0.0524 0.4656 0.8834
vn -0.0006 0.4502 0.8929
vn 0.0267 0.5056 0.8624
vn -0.0071 0.5100 0.8602
vn -0.0441 0.5237 0.8507
vn 0.0295 0.4675 0.8835
vn -0.0150 0.6723 0.7401
vn 0.0505 0.6515 0.7570
vn 0.0173 0.2450 0.9694
vn 0.0092 0.2258 0.9741
vn 0.0465 0.2744 0.9605
vn 0.0081 0.0325 0.9994
vn 0.1084 0.0671 0.9918
vn 0.2264 0.8065 0.5461
vn 0.1601 0.8369 0.5234
vn 0.0754 0.8408 0.5361
vn -0.0142 0.8671 0.4979
vn -0.1326 0.8467 0.5153
vn -0.0979 0.5134 0.8525
vn 0.0045 0.4076 0.9131
vn 0.0181 0.6879 0.7256
vn -0.0770 0.4239 0.9024
vn -0.0588 0.7237 0.6876
vn -0.1838 0.3184 0.9300
vn -0.1510 0.7173 0.6802
vn 0.0575 0.2263 0.9724
vn 0.1070 0.0878 0.9904
vn -0.0487 0.2378 0.9701
vn -0.1960 0.2604 0.9454
vn -0.2487 0.3445 0.9052
vn -0.2859 0.7343 0.6156
vn -0.2868 0.1569 0.9451
vn -0.2517 0.1933 0.9483
vn -0.3402 0.0195 0.9402
vn -0.3955 -0.0346 0.9178
vn -0.1581 0.0853 0.9837
vn -0.5622 0.3565 0.7462
vn -0.5341 0.1163 0.8374
vn -0.3805 0.8228 0.4223
vn -0.4622 0.8048 0.3724
vn -0.7535 0.4617 0.4681
vn -0.5092 -0.0521 0.8590
vn -0.2031 -0.0697 0.9767
vn -0.3558 -0.5121 0.7818
vn -0.2342 -0.5038 0.8314
vn -0.4406 -0.3701 0.8179
vn 0.1290 -0.0232 0.9914
vn 0.0321 -0.1585 0.9868
vn 0.0393 -0.0823 0.9958
vn 0.0198 -0.7424 0.6697
vn 0.0346 -0.7222 0.6908
vn 0.0097 -0.0744 0.9972
vn -0.0062 -0.7591 0.6509
vn 0.0221 -0.0664 0.9975
vn 0.0047 -0.4563 0.8898
vn -0.0001 -0.9377 0.3476
vn 0.2510 -0.7360 0.6287
vn 0.3072 -0.8172 0.4876
vn -0.6454 -0.1831 0.7416
vn -0.6534 -0.1261 0.7464
vn -0.5332 -0.6537 0.5370
vn -0.5655 -0.3275 0.7569
vn -0.4876 -0.4733 0.7336
vn -0.3389 -0.5897 0.7331
vn -0.1285 -0.6643 0.7364
vn 0.1478 -0.6407 0.7534
vn 0.4099 -0.5137 0.7537
vn 0.5832 -0.3255 0.7443
vn 0.6565 -0.1812 0.7323
vn 0.6158 -0.3880 0.6857
vn 0.6165 -0.7324 0.2891
vn -0.2142 0.7972 0.5645
vn -0.1426 0.5476 0.8245
vn -0.0289 0.7251 0.6880
vn -0.0787 0.8406 0.5359
vn -0.1887 0.7132 0.6751
vn -0.1406 0.9434 0.3003
vn -0.2616 0.9217 0.2863
vn -0.2761 0.8496 0.4494
vn 0.5318 -0.5089 0.6769
vn 0.5710 -0.3017 0.7635
vn 0.4314 -0.4763 0.7662
vn 0.1659 -0.6173 0.7690
vn -0.1413 -0.6253 0.7675
vn -0.3972 -0.4926 0.7743
vn -0.5822 -0.3110 0.7512
vn -0.6676 -0.1768 0.7232
vn -0.5767 -0.6560 0.4869
vn -0.6121 -0.5951 0.5207
vn 0.1978 -0.9350 0.2945
vn -0.3969 -0.9173 0.0332
vn 0.1661 0.9639 -0.2080
vn 0.2233 0.9687 -0.1082
vn 0.3154 0.8908 -0.3271
vn 0.4890 0.7277 -0.4810
vn 0.3062 0.9490 -0.0746
vn 0.5148 0.8053 -0.2940
vn 0.4262 0.8918 -0.1518
vn 0.5722 0.7694 -0.2839
vn 0.5387 0.8339 -0.1198
vn 0.5885 0.7673 -0.2548
vn 0.1643 0.8608 -0.4817
vn 0.3403 0.9307 -0.1342
vn 0.1826 0.9770 -0.1103
vn 0.3828 0.9065 -0.1781
vn -0.1298 0.9585 -0.2537
vn -0.4296 0.7792 -0.4563
vn 0.2423 0.9587 -0.1489
vn 0.3301 0.9304 -0.1592
vn 0.1277 0.9809 -0.1465
vn 0.1370 0.9890 -0.0558
vn 0.2508 0.9653 -0.0725
vn -0.0027 0.9937 -0.1117
vn -0.1400 0.9830 -0.1188
vn -0.2446 0.9528 -0.1796
vn -0.0265 0.9946 -0.0999
vn -0.2719 0.9511 -0.1466
vn -0.3099 0.9366 -0.1635
vn -0.5815 0.6620 -0.4729
vn -0.7536 0.5882 -0.2935
vn -0.0090 0.9987 -0.0496
vn 0.0134 0.9987 -0.0496
vn -0.1177 0.9912 -0.0609
vn -0.2969 0.9526 -0.0659
vn -0.2258 0.9719 -0.0659
vn -0.2451 0.9684 -0.0452
vn 0.0248 0.9997 0.0000
vn -0.2340 0.9722 0.0000
vn -0.1139 0.9935 0.0000
vn 0.0137 0.9999 0.0000
vn 0.2532 0.9674 0.0000
vn 0.3413 0.9399 -0.0000
vn 0.3326 0.9381 -0.0969
vn 0.1362 0.9907 0.0000
vn -0.8306 0.5568 0.0000
vn -0.2949 0.9555 0.0000
vn -0.2215 0.9752 0.0000
vn 0.1661 0.9639 0.2080
vn 0.2233 0.9687 0.1082
vn 0.3154 0.8908 0.3271
vn 0.4890 0.7277 0.4810
vn 0.5148 0.8053 0.2940
vn 0.3062 0.9490 0.0746
vn 0.5722 0.7694 0.2839
vn 0.4262 0.8918 0.1518
vn 0.5885 0.7673 0.2548
vn 0.5387 0.8339 0.1198
vn 0.1643 0.8608 0.4817
vn 0.3403 0.9307 0.1342
vn 0.1826 0.9770 0.1103
vn 0.3828 0.9065 0.1781
vn -0.1298 0.9585 0.2537
vn -0.4296 0.7792 0.4563
vn 0.2423 0.9587 0.1489
vn 0.3301 0.9304 0.1592
vn 0.1277 0.9809 0.1465
vn 0.1370 0.9890 0.0558
vn 0.2508 0.9653 0.0725
vn -0.0027 0.9937 0.1117
vn -0.1400 0.9830 0.1188
vn -0.2446 0.9528 0.1796
vn -0.2719 0.9511 0.1466
vn -0.0265 0.9946 0.0999
vn -0.3099 0.9366 0.1635
vn -0.5815 0.6620 0.4729
vn -0.0090 0.9987 0.0496
vn -0.7536 0.5882 0.2935
vn 0.0134 0.9987 0.0496
vn -0.1177 0.9912 0.0609
vn -0.2258 0.9719 0.0659
vn -0.2969 0.9526 0.0659
vn -0.2451 0.9684 0.0452
vn 0.3326 0.9381 0.0969
vn 0.7411 0.5192 -0.4257
vn 0.6643 0.6121 -0.4290
vn 0.6174 0.5602 -0.5522
vn 0.6700 0.3041 -0.6772
vn 0.7705 0.3509 -0.5322
vn 0.8374 0.2975 -0.4585
vn 0.8032 0.1289 -0.5815
vn 0.6839 0.0967 -0.7232
vn 0.5094 0.5270 -0.6803
vn 0.6607 0.0341 -0.7499
vn 0.6506 -0.6269 -0.4286
vn 0.8919 0.1571 -0.4241
vn 0.7402 -0.5629 -0.3678
vn 0.9531 0.1293 -0.2735
vn 0.7728 -0.5953 -0.2201
vn 0.9820 0.1476 -0.1182
vn 0.7927 -0.6028 -0.0909
vn 0.9902 0.1395 0.0000
vn 0.7866 -0.6175 0.0000
vn 0.4960 -0.6815 -0.5381
vn 0.6643 0.6121 0.4290
vn 0.7411 0.5192 0.4257
vn 0.6174 0.5602 0.5522
vn 0.6700 0.3041 0.6772
vn 0.7705 0.3509 0.5322
vn 0.8374 0.2975 0.4585
vn 0.8032 0.1289 0.5815
vn 0.6839 0.0967 0.7232
vn 0.5094 0.5270 0.6803
vn 0.6607 0.0341 0.7499
vn 0.6506 -0.6269 0.4286
vn 0.8919 0.1571 0.4241
vn 0.7402 -0.5629 0.3678
vn 0.7728 -0.5953 0.2201
vn 0.9531 0.1293 0.2735
vn 0.7927 -0.6028 0.0909
vn 0.9820 0.1476 0.1182
vn 0.4960 -0.6815 0.5381
vn -0.8254 0.3790 -0.4184
vn -0.9385 0.0580 -0.3403
vn -0.8599 0.3415 -0.3793
vn -0.9743 -0.1314 -0.1828
vn -0.9349 0.2394 -0.2621
vn -0.8751 0.2359 -0.4226
vn -0.9665 0.2080 -0.1504
vn -0.8056 0.1665 -0.5686
vn -0.6747 0.0474 -0.7366
vn -0.8379 0.1921 -0.5109
vn -0.9377 0.1406 -0.3177
vn -0.9727 0.1945 -0.1268
vn -0.8521 -0.1074 -0.5123
vn -0.9826 -0.0673 -0.1730
vn -0.9966 -0.0826 0.0000
vn -0.9890 0.1480 0.0000
vn -0.7251 -0.6702 -0.1583
vn -0.9816 -0.1908 0.0000
vn -0.9851 0.1719 -0.0000
vn -0.7142 -0.7000 0.0000
vn -0.8254 0.3790 0.4184
vn -0.9385 0.0580 0.3403
vn -0.8599 0.3415 0.3793
vn -0.9743 -0.1314 0.1828
vn -0.9349 0.2394 0.2621
vn -0.8751 0.2359 0.4226
vn -0.9665 0.2080 0.1504
vn -0.6747 0.0474 0.7366
vn -0.8056 0.1665 0.5686
vn -0.8379 0.1921 0.5109
vn -0.9377 0.1406 0.3177
vn -0.9727 0.1945 0.1268
vn -0.8521 -0.1074 0.5123
vn -0.9826 -0.0673 0.1730
vn -0.7251 -0.6702 0.1583
vn 0.6567 0.5354 -0.5311
vn 0.6471 0.4869 -0.5867
vn 0.4350 0.7805 -0.4490
vn 0.4449 0.8816 -0.1577
vn 0.5350 0.4883 -0.6895
vn 0.2638 0.8076 -0.5274
vn 0.7000 -0.1170 -0.7045
vn 0.7248 -0.1455 -0.6734
vn 0.7164 0.6519 -0.2486
vn 0.8828 0.0944 -0.4601
vn 0.2512 0.7727 0.5830
vn 0.5193 0.6272 0.5805
vn 0.3469 0.8901 0.2956
vn -0.3469 -0.9154 0.2044
vn -0.3946 0.6357 0.6634
vn -0.1798 0.0752 0.9808
vn -0.1785 -0.9172 0.3562
vn 0.5930 -0.1602 -0.7891
vn 0.3142 -0.8702 -0.3794
vn 0.3028 -0.8526 -0.4260
vn 0.3002 -0.8955 -0.3286
vn 0.2994 -0.8698 -0.3922
vn 0.2711 -0.8060 -0.5262
vn 0.6573 0.5477 -0.5177
vn 0.3883 0.8356 -0.3886
vn 0.4732 -0.1138 -0.8736
vn 0.4395 0.6136 -0.6560
vn 0.0423 -0.9718 -0.2320
vn -0.5863 -0.7592 0.2825
vn -0.5203 -0.7183 0.4619
vn -0.4010 -0.2509 0.8810
vn -0.5762 -0.7892 0.2125
vn 0.1936 -0.8341 -0.5165
vn -0.6529 -0.7425 -0.1499
vn 0.6567 0.5354 0.5311
vn 0.4449 0.8816 0.1577
vn 0.4350 0.7805 0.4490
vn 0.6471 0.4869 0.5867
vn 0.5350 0.4883 0.6895
vn 0.2638 0.8076 0.5274
vn 0.7000 -0.1170 0.7045
vn 0.7248 -0.1455 0.6734
vn 0.7164 0.6519 0.2486
vn 0.8828 0.0944 0.4601
vn 0.2512 0.7727 -0.5830
vn 0.5193 0.6272 -0.5805
vn 0.3469 0.8901 -0.2956
vn -0.3469 -0.9154 -0.2044
vn -0.1785 -0.9172 -0.3562
vn -0.1798 0.0752 -0.9808
vn -0.3946 0.6357 -0.6634
vn 0.5930 -0.1602 0.7891
vn 0.3028 -0.8526 0.4260
vn 0.3142 -0.8702 0.3794
vn 0.3002 -0.8955 0.3286
vn 0.2994 -0.8698 0.3922
vn 0.2711 -0.8060 0.5262
vn 0.6573 0.5477 0.5177
vn 0.3883 0.8356 0.3886
vn 0.4732 -0.1138 0.8736
vn 0.4395 0.6136 0.6560
vn 0.0423 -0.9718 0.2320
vn -0.5863 -0.7592 -0.2825
vn -0.5203 -0.7183 -0.4619
vn -0.4010 -0.2509 -0.8810
vn -0.5762 -0.7892 -0.2125
vn 0.1936 -0.8341 0.5165
vn -0.6529 -0.7425 0.1499
vn -0.5492 0.7866 0.2822
vn -0.5986 0.7879 0.1447
vn -0.8883 -0.0080 0.4591
vn -0.6465 0.7538 0.1173
vn -0.6727 0.7237 -0.1541
vn -0.7322 0.5590 -0.3891
vn -0.5060 0.2106 0.8364
vn -0.7587 -0.1304 -0.6383
vn -0.4834 0.5717 0.6629
vn -0.5492 0.7866 -0.2822
vn -0.8883 -0.0080 -0.4591
vn -0.5986 0.7879 -0.1447
vn -0.6465 0.7538 -0.1173
vn -0.6727 0.7237 0.1541
vn -0.7322 0.5590 0.3891
vn -0.5060 0.2106 -0.8364
vn -0.7587 -0.1304 0.6383
vn -0.4834 0.5717 -0.6629
vn -0.0280 0.9728 0.2298
vn -0.0726 0.9806 0.1821
vn 0.0345 0.3425 0.9389
vn -0.0094 0.8251 0.5649
vn -0.0280 0.9728 -0.2298
vn -0.0726 0.9806 -0.1821
vn 0.0345 0.3425 -0.9389
vn -0.0094 0.8251 -0.5649
vn 0.1987 0.4480 -0.8717
vn 0.3112 -0.1592 -0.9369
vn 0.1987 0.4480 0.8717
vn 0.3112 -0.1592 0.9369
vn 0.2944 -0.9050 -0.3070
vn -0.0174 -0.9998 0.0000
vn -0.0047 -1.0000 0.0000
vn -0.0041 -1.0000 -0.0031
vn -0.3106 -0.8939 -0.3232
vn -0.0045 -1.0000 0.0000
vn -0.1379 -0.9905 0.0000
vn 0.0509 -0.9987 0.0000
vn -0.2434 -0.9191 -0.3098
vn 0.7206 -0.0581 -0.6909
vn -0.7148 -0.0495 -0.6976
vn 0.7090 -0.0032 -0.7052
vn -0.7107 -0.0189 -0.7032
vn 0.7239 -0.0845 -0.6847
vn -0.7240 -0.1412 -0.6752
vn 0.6825 -0.3023 -0.6654
vn -0.6556 -0.3259 -0.6812
vn 0.4928 -0.5712 -0.6565
vn -0.5509 -0.4896 -0.6759
vn 0.1690 -0.7347 -0.6570
vn -0.1552 -0.7295 -0.6662
vn -0.3862 -0.6282 -0.6755
vn 0.7020 -0.2455 -0.6685
vn -0.6873 -0.3013 -0.6610
vn 0.5403 -0.5292 -0.6542
vn -0.4864 -0.5744 -0.6584
vn 0.2074 -0.7282 -0.6532
vn -0.1693 -0.7347 -0.6570
vn 0.5948 -0.7698 -0.2317
vn 0.2944 -0.9050 0.3070
vn -0.0041 -1.0000 0.0031
vn -0.3106 -0.8939 0.3232
vn -0.2434 -0.9191 0.3098
vn -0.7149 -0.0495 0.6975
vn 0.7205 -0.0581 0.6910
vn -0.7106 -0.0189 0.7033
vn 0.7090 -0.0031 0.7052
vn -0.7240 -0.1412 0.6752
vn 0.7240 -0.0845 0.6846
vn -0.6556 -0.3259 0.6812
vn 0.6824 -0.3023 0.6655
vn -0.5508 -0.4896 0.6759
vn 0.4928 -0.5712 0.6565
vn 0.1690 -0.7347 0.6570
vn -0.3862 -0.6282 0.6754
vn -0.1552 -0.7295 0.6662
vn -0.6872 -0.3013 0.6610
vn 0.7020 -0.2455 0.6685
vn -0.4864 -0.5744 0.6584
vn 0.5403 -0.5292 0.6542
vn -0.1693 -0.7347 0.6570
vn 0.2074 -0.7282 0.6532
vn 0.5948 -0.7698 0.2317
vn -0.9798 0.1999 0.0000
# 559 vertex normals

vt 0.2469 0.8930 0.0000
vt 0.2470 0.8778 0.0000
vt 0.2825 0.8788 0.0000
vt 0.2929 0.8971 0.0000
vt 0.2142 0.8782 0.0000
vt 0.2253 0.8684 0.0000
vt 0.1769 0.8437 0.0000
vt 0.1710 0.8181 0.0000
vt 0.1897 0.8187 0.0000
vt 0.1986 0.8437 0.0000
vt 0.2074 0.8540 0.0000
vt 0.1649 0.7725 0.0000
vt 0.1842 0.7742 0.0000
vt 0.3296 0.8796 0.0000
vt 0.3336 0.8981 0.0000
vt 0.3195 0.8597 0.0000
vt 0.3526 0.8693 0.0000
vt 0.3375 0.8319 0.0000
vt 0.3748 0.8353 0.0000
vt 0.3477 0.7957 0.0000
vt 0.3861 0.7968 0.0000
vt 0.3502 0.7713 0.0000
vt 0.3878 0.7750 0.0000
vt 0.3518 0.7645 0.0000
vt 0.3899 0.7653 0.0000
vt 0.4459 0.8371 0.0000
vt 0.4389 0.8777 0.0000
vt 0.3563 0.8808 0.0000
vt 0.3645 0.8977 0.0000
vt 0.4361 0.8984 0.0000
vt 0.4654 0.9120 0.0000
vt 0.4031 0.9139 0.0000
vt 0.4637 0.9453 0.0000
vt 0.4580 0.9543 0.0000
vt 0.3950 0.9238 0.0000
vt 0.4958 0.9591 0.0000
vt 0.5805 0.9149 0.0000
vt 0.5238 0.9689 0.0000
vt 0.5664 0.9765 0.0000
vt 0.6209 0.9810 0.0000
vt 0.7203 0.9232 0.0000
vt 0.5870 0.9021 0.0000
vt 0.7165 0.9141 0.0000
vt 0.4796 0.8807 0.0000
vt 0.5916 0.8876 0.0000
vt 0.7205 0.8951 0.0000
vt 0.5892 0.8411 0.0000
vt 0.7034 0.8434 0.0000
vt 0.4898 0.9680 0.0000
vt 0.5131 0.9760 0.0000
vt 0.5590 0.9851 0.0000
vt 0.6167 0.9902 0.0000
vt 0.7297 0.9824 0.0000
vt 0.7318 0.9706 0.0000
vt 0.7729 0.9006 0.0000
vt 0.7738 0.9190 0.0000
vt 0.8271 0.9014 0.0000
vt 0.8321 0.9202 0.0000
vt 0.8891 0.8983 0.0000
vt 0.8922 0.9175 0.0000
vt 0.7426 0.8609 0.0000
vt 0.7781 0.8783 0.0000
vt 0.8180 0.8776 0.0000
vt 0.8773 0.8826 0.0000
vt 0.9189 0.9083 0.0000
vt 0.9178 0.9156 0.0000
vt 0.8950 0.8835 0.0000
vt 0.9210 0.8831 0.0000
vt 0.8988 0.8344 0.0000
vt 0.9217 0.8343 0.0000
vt 0.8590 0.8533 0.0000
vt 0.9331 0.8838 0.0000
vt 0.9347 0.9053 0.0000
vt 0.9298 0.9144 0.0000
vt 0.9418 0.9086 0.0000
vt 0.9372 0.9136 0.0000
vt 0.9362 0.8332 0.0000
vt 0.8748 0.8214 0.0000
vt 0.8823 0.7888 0.0000
vt 0.9078 0.7888 0.0000
vt 0.9315 0.7887 0.0000
vt 0.7234 0.8270 0.0000
vt 0.6912 0.7995 0.0000
vt 0.7160 0.7959 0.0000
vt 0.6895 0.7707 0.0000
vt 0.7151 0.7709 0.0000
vt 0.5946 0.8046 0.0000
vt 0.5897 0.7681 0.0000
vt 0.4508 0.7967 0.0000
vt 0.4504 0.7762 0.0000
vt 0.4536 0.7652 0.0000
vt 0.1849 0.7642 0.0000
vt 0.1658 0.7659 0.0000
vt 0.1955 0.7741 0.0000
vt 0.1973 0.8163 0.0000
vt 0.1954 0.7632 0.0000
vt 0.2034 0.8336 0.0000
vt 0.2125 0.8477 0.0000
vt 0.2291 0.8619 0.0000
vt 0.2490 0.8705 0.0000
vt 0.2811 0.8710 0.0000
vt 0.3133 0.8545 0.0000
vt 0.3309 0.8291 0.0000
vt 0.3385 0.7945 0.0000
vt 0.3388 0.7715 0.0000
vt 0.3388 0.7644 0.0000
vt 0.7746 0.9716 0.0000
vt 0.7765 0.9608 0.0000
vt 0.7768 0.9297 0.0000
vt 0.8390 0.9281 0.0000
vt 0.8387 0.9434 0.0000
vt 0.8984 0.9223 0.0000
vt 0.8983 0.9259 0.0000
vt 0.8440 0.9516 0.0000
vt 0.8724 0.7877 0.0000
vt 0.8674 0.8205 0.0000
vt 0.8512 0.8493 0.0000
vt 0.8158 0.8708 0.0000
vt 0.7822 0.8714 0.0000
vt 0.7520 0.8558 0.0000
vt 0.7310 0.8268 0.0000
vt 0.7257 0.7992 0.0000
vt 0.7256 0.7693 0.0000
vt 0.9591 0.7883 0.0000
vt 0.9346 0.7725 0.0000
vt 0.8726 0.7650 0.0000
vt 0.2500 0.5560 0.0000
vt 0.2958 0.5531 0.0000
vt 0.2930 0.5760 0.0000
vt 0.2436 0.5871 0.0000
vt 0.2113 0.5638 0.0000
vt 0.2174 0.5487 0.0000
vt 0.1921 0.5632 0.0000
vt 0.2085 0.5983 0.0000
vt 0.1747 0.5824 0.0000
vt 0.1647 0.6123 0.0000
vt 0.1568 0.6020 0.0000
vt 0.1284 0.6332 0.0000
vt 0.1279 0.6275 0.0000
vt 0.3612 0.5654 0.0000
vt 0.3671 0.5501 0.0000
vt 0.4055 0.5583 0.0000
vt 0.3975 0.5649 0.0000
vt 0.3363 0.5513 0.0000
vt 0.3965 0.5687 0.0000
vt 0.3589 0.5693 0.0000
vt 0.4601 0.5731 0.0000
vt 0.4590 0.5791 0.0000
vt 0.9397 0.5943 0.0000
vt 0.9373 0.5754 0.0000
vt 0.9488 0.5971 0.0000
vt 0.4918 0.5780 0.0000
vt 0.5150 0.5815 0.0000
vt 0.5138 0.5865 0.0000
vt 0.4909 0.5834 0.0000
vt 0.5607 0.5858 0.0000
vt 0.5593 0.5932 0.0000
vt 0.5537 0.6427 0.0000
vt 0.5013 0.6363 0.0000
vt 0.6181 0.5981 0.0000
vt 0.6182 0.5901 0.0000
vt 0.7307 0.5940 0.0000
vt 0.7311 0.6010 0.0000
vt 0.7754 0.5939 0.0000
vt 0.7773 0.6050 0.0000
vt 0.8986 0.5841 0.0000
vt 0.9555 0.6189 0.0000
vt 0.9142 0.6294 0.0000
vt 0.8459 0.6111 0.0000
vt 0.8445 0.5968 0.0000
vt 0.9614 0.6128 0.0000
vt 0.9741 0.6379 0.0000
vt 0.9641 0.6468 0.0000
vt 0.6124 0.6462 0.0000
vt 0.7258 0.6474 0.0000
vt 0.8453 0.6565 0.0000
vt 0.7765 0.6493 0.0000
vt 0.9271 0.6609 0.0000
vt 0.9729 0.7052 0.0000
vt 0.9283 0.7052 0.0000
vt 0.7245 0.7052 0.0000
vt 0.6114 0.7052 0.0000
vt 0.4961 0.7052 0.0000
vt 0.4731 0.7052 0.0000
vt 0.4786 0.6316 0.0000
vt 0.5528 0.7052 0.0000
vt 0.9850 0.7052 0.0000
vt 0.8454 0.7052 0.0000
vt 0.7757 0.7052 0.0000
vt 0.4970 0.1779 0.0000
vt 0.4576 0.1573 0.0000
vt 0.4786 0.1409 0.0000
vt 0.5182 0.1450 0.0000
vt 0.5478 0.1477 0.0000
vt 0.5273 0.1875 0.0000
vt 0.5528 0.1335 0.0000
vt 0.5252 0.1302 0.0000
vt 0.4902 0.1269 0.0000
vt 0.5226 0.0868 0.0000
vt 0.5581 0.0940 0.0000
vt 0.5831 0.0973 0.0000
vt 0.5827 0.1388 0.0000
vt 0.5764 0.1608 0.0000
vt 0.5572 0.1915 0.0000
vt 0.6022 0.1388 0.0000
vt 0.6039 0.1553 0.0000
vt 0.5795 0.1946 0.0000
vt 0.5792 0.0236 0.0000
vt 0.5589 0.0210 0.0000
vt 0.5262 0.0213 0.0000
vt 0.4888 0.0770 0.0000
vt 0.4937 0.0259 0.0000
vt 0.4443 0.0728 0.0000
vt 0.4494 0.0258 0.0000
vt 0.3914 0.0740 0.0000
vt 0.3933 0.0259 0.0000
vt 0.3373 0.0737 0.0000
vt 0.3372 0.0258 0.0000
vt 0.5589 0.0137 0.0000
vt 0.5749 0.0130 0.0000
vt 0.1081 0.2401 0.0000
vt 0.1416 0.2350 0.0000
vt 0.1362 0.2586 0.0000
vt 0.1126 0.2544 0.0000
vt 0.1052 0.2354 0.0000
vt 0.1805 0.2358 0.0000
vt 0.1741 0.2626 0.0000
vt 0.1393 0.1975 0.0000
vt 0.0995 0.1979 0.0000
vt 0.1767 0.1938 0.0000
vt 0.0721 0.1997 0.0000
vt 0.0703 0.1276 0.0000
vt 0.0980 0.1274 0.0000
vt 0.1372 0.1279 0.0000
vt 0.1745 0.1267 0.0000
vt 0.0776 0.2378 0.0000
vt 0.0611 0.2328 0.0000
vt 0.0523 0.2009 0.0000
vt 0.0798 0.2452 0.0000
vt 0.0518 0.1256 0.0000
vt 0.0580 0.0594 0.0000
vt 0.0831 0.0589 0.0000
vt 0.1002 0.0914 0.0000
vt 0.1639 0.0952 0.0000
vt 0.2753 0.0956 0.0000
vt 0.2753 0.1268 0.0000
vt 0.1633 0.0597 0.0000
vt 0.2748 0.2650 0.0000
vt 0.2751 0.2395 0.0000
vt 0.2749 0.1966 0.0000
vt 0.2753 0.0603 0.0000
vt 0.4266 0.2514 0.0000
vt 0.4627 0.2472 0.0000
vt 0.4525 0.2795 0.0000
vt 0.4043 0.2869 0.0000
vt 0.4970 0.2480 0.0000
vt 0.4847 0.2767 0.0000
vt 0.4681 0.2257 0.0000
vt 0.4352 0.2219 0.0000
vt 0.3962 0.2532 0.0000
vt 0.3893 0.2183 0.0000
vt 0.3899 0.2855 0.0000
vt 0.3803 0.2543 0.0000
vt 0.3732 0.2163 0.0000
vt 0.3297 0.1933 0.0000
vt 0.3286 0.2047 0.0000
vt 0.3658 0.2163 0.0000
vt 0.3800 0.2008 0.0000
vt 0.5021 0.2275 0.0000
vt 0.4570 0.2068 0.0000
vt 0.4879 0.2098 0.0000
vt 0.4247 0.2047 0.0000
vt 0.3799 0.2000 0.0000
vt 0.3551 0.1968 0.0000
vt 0.3606 0.2119 0.0000
vt 0.3368 0.2124 0.0000
vt 0.3291 0.1958 0.0000
vt 0.3228 0.2121 0.0000
vt 0.3284 0.1938 0.0000
vt 0.4131 0.1969 0.0000
vt 0.3871 0.1982 0.0000
vt 0.3662 0.2144 0.0000
vt 0.4626 0.2006 0.0000
vt 0.4997 0.2097 0.0000
vt 0.5011 0.2075 0.0000
vt 0.2491 0.8343 0.0000
vt 0.2711 0.8309 0.0000
vt 0.2647 0.8083 0.0000
vt 0.2806 0.8284 0.0000
vt 0.2888 0.8255 0.0000
vt 0.2971 0.8174 0.0000
vt 0.2261 0.7933 0.0000
vt 0.2302 0.8109 0.0000
vt 0.3046 0.7995 0.0000
vt 0.2941 0.7879 0.0000
vt 0.2499 0.7821 0.0000
vt 0.2364 0.7828 0.0000
vt 0.2738 0.7841 0.0000
vt 0.2392 0.8309 0.0000
vt 0.1137 0.9448 0.0000
vt 0.0836 0.9489 0.0000
vt 0.1005 0.9200 0.0000
vt 0.1264 0.9187 0.0000
vt 0.1191 0.9007 0.0000
vt 0.1319 0.9074 0.0000
vt 0.1366 0.8977 0.0000
vt 0.0318 0.9753 0.0000
vt 0.0445 0.9579 0.0000
vt 0.0472 0.9677 0.0000
vt 0.0397 0.9793 0.0000
vt 0.0299 0.9936 0.0000
vt 0.0215 0.9867 0.0000
vt 0.0095 0.9951 0.0000
vt 0.0888 0.9674 0.0000
vt 0.0633 0.9633 0.0000
vt 0.0837 0.9575 0.0000
vt 0.0943 0.9570 0.0000
vt 0.0789 0.9721 0.0000
vt 0.0992 0.9719 0.0000
vt 0.1016 0.9670 0.0000
vt 0.0573 0.9916 0.0000
vt 0.1074 0.9564 0.0000
vt 0.1710 0.4729 0.0000
vt 0.1659 0.4940 0.0000
vt 0.1526 0.4719 0.0000
vt 0.1884 0.4937 0.0000
vt 0.1945 0.4823 0.0000
vt 0.1647 0.4568 0.0000
vt 0.1468 0.4562 0.0000
vt 0.2000 0.4572 0.0000
vt 0.1923 0.4408 0.0000
vt 0.1669 0.4425 0.0000
vt 0.1532 0.4426 0.0000
vt 0.8215 0.8159 0.0000
vt 0.8231 0.7794 0.0000
vt 0.8083 0.7794 0.0000
vt 0.8069 0.8141 0.0000
vt 0.7524 0.8138 0.0000
vt 0.7716 0.8147 0.0000
vt 0.7699 0.7794 0.0000
vt 0.7498 0.7795 0.0000
vt 0.8532 0.7908 0.0000
vt 0.8531 0.7794 0.0000
vt 0.8403 0.7794 0.0000
vt 0.8401 0.8159 0.0000
vt 0.8490 0.8181 0.0000
vt 0.8508 0.8114 0.0000
vt 0.8522 0.8023 0.0000
vt 0.8463 0.8248 0.0000
vt 0.7525 0.8138 0.0000
vt 0.7715 0.8138 0.0000
vt 0.8216 0.8159 0.0000
vt 0.8399 0.8159 0.0000
vt 0.8226 0.8159 0.0000
vt 0.8391 0.8159 0.0000
vt 0.8248 0.8159 0.0000
vt 0.8379 0.8159 0.0000
vt 0.8290 0.8159 0.0000
vt 0.8332 0.8159 0.0000
vt 0.8357 0.8159 0.0000
vt 0.7531 0.8138 0.0000
vt 0.7708 0.8138 0.0000
vt 0.7552 0.8138 0.0000
vt 0.7681 0.8138 0.0000
vt 0.7598 0.8138 0.0000
vt 0.7641 0.8138 0.0000
vt 0.8149 0.8280 0.0000
vt 0.8067 0.8276 0.0000
vt 0.8199 0.8282 0.0000
vt 0.8215 0.8288 0.0000
vt 0.7891 0.8304 0.0000
vt 0.7761 0.8314 0.0000
vt 0.7715 0.8317 0.0000
vt 0.7728 0.8320 0.0000
vt 0.7524 0.8210 0.0000
vt 0.7479 0.8289 0.0000
vt 0.7512 0.8321 0.0000
vt 0.7525 0.8323 0.0000
vt 0.7444 0.8204 0.0000
vt 0.7448 0.8251 0.0000
vt 0.7412 0.8198 0.0000
vt 0.7531 0.8341 0.0000
vt 0.7552 0.8348 0.0000
vt 0.7598 0.8351 0.0000
vt 0.7641 0.8351 0.0000
vt 0.7681 0.8350 0.0000
vt 0.7708 0.8346 0.0000
vt 0.7715 0.8338 0.0000
vt 0.8401 0.8323 0.0000
vt 0.8399 0.8334 0.0000
vt 0.8401 0.8316 0.0000
vt 0.8391 0.8337 0.0000
vt 0.8379 0.8339 0.0000
vt 0.8357 0.8341 0.0000
vt 0.8332 0.8342 0.0000
vt 0.8290 0.8344 0.0000
vt 0.8248 0.8342 0.0000
vt 0.8226 0.8338 0.0000
vt 0.8216 0.8327 0.0000
vt 0.8215 0.8315 0.0000
vt 0.8415 0.8312 0.0000
vt 0.8439 0.8280 0.0000
vt 0.7384 0.8030 0.0000
vt 0.7379 0.7794 0.0000
vt 0.1402 0.9231 0.0000
vt 0.3583 0.9231 0.0000
vt 0.3583 0.9887 0.0000
vt 0.1402 0.9887 0.0000
# 408 texture coords

o Carro
g Carro
usemtl 767c8b7b_1260_4325_b83f_f635800d9059_Standard00E280
s 1
f 1/1/1 2/2/2 3/3/3 4/4/4 
f 5/5/5 6/6/6 2/2/2 1/1/1 
f 7/7/7 8/8/8 9/9/9 10/10/10 
f 6/6/6 5/5/5 11/11/11 
f 8/8/8 12/12/12 13/13/13 9/9/9 
f 4/4/4 3/3/3 14/14/14 15/15/15 
f 16/16/16 14/14/14 3/3/3 
f 17/17/17 14/14/14 16/16/16 
f 18/18/18 19/19/19 17/17/17 16/16/16 
f 20/20/20 21/21/21 19/19/19 18/18/18 
f 21/21/21 20/20/20 22/22/22 23/23/23 
f 24/24/24 25/25/25 23/23/23 22/22/22 
f 19/19/19 26/26/26 27/27/27 17/17/17 
f 28/28/28 14/14/14 17/17/17 
f 28/28/28 29/29/29 15/15/15 14/14/14 
f 28/28/28 17/17/17 27/27/27 
f 27/27/27 30/30/30 29/29/29 28/28/28 
f 30/30/30 31/31/31 32/32/32 29/29/29 
f 32/32/32 33/33/33 34/34/34 35/35/35 
f 31/31/31 33/33/33 32/32/32 
f 36/36/36 33/33/33 31/31/31 37/37/37 
f 38/38/38 36/36/36 37/37/37 
f 39/39/39 38/38/38 37/37/37 
f 40/40/40 39/39/39 37/37/37 
f 41/41/41 37/37/37 42/42/42 43/43/43 
f 37/37/37 31/31/31 44/44/44 42/42/42 
f 27/27/27 44/44/44 31/31/31 30/30/30 
f 45/45/45 42/42/42 44/44/44 
f 43/43/43 42/42/42 45/45/45 46/46/46 
f 44/44/44 27/27/27 26/26/26 
f 44/44/44 26/26/26 47/47/47 45/45/45 
f 45/45/45 47/47/47 48/48/48 46/46/46 
f 33/33/33 36/36/36 49/49/49 34/34/34 
f 36/36/36 38/38/38 50/50/50 49/49/49 
f 38/38/38 39/39/39 51/51/51 50/50/50 
f 39/39/39 40/40/40 52/52/52 51/51/51 
f 53/53/53 52/52/52 40/40/40 54/54/54 
f 43/43/43 46/46/46 55/55/55 56/56/56 
f 56/56/56 55/55/55 57/57/57 58/58/58 
f 58/58/58 57/57/57 59/59/59 60/60/60 
f 55/55/55 46/46/46 61/61/61 62/62/62 
f 63/63/63 57/57/57 55/55/55 62/62/62 
f 57/57/57 63/63/63 64/64/64 59/59/59 
f 60/60/60 59/59/59 65/65/65 66/66/66 
f 59/59/59 67/67/67 68/68/68 65/65/65 
f 69/69/69 70/70/70 68/68/68 67/67/67 
f 67/67/67 59/59/59 64/64/64 
f 71/71/71 64/64/64 63/63/63 
f 67/67/67 64/64/64 71/71/71 69/69/69 
f 68/68/68 72/72/72 73/73/73 65/65/65 
f 65/65/65 73/73/73 74/74/74 66/66/66 
f 74/74/74 73/73/73 75/75/75 76/76/76 
f 72/72/72 68/68/68 70/70/70 77/77/77 
f 78/78/78 69/69/69 71/71/71 
f 69/69/69 78/78/78 79/79/79 80/80/80 
f 80/80/80 81/81/81 70/70/70 69/69/69 
f 77/77/77 70/70/70 81/81/81 
f 48/48/48 61/61/61 46/46/46 
f 82/82/82 61/61/61 48/48/48 
f 82/82/82 48/48/48 83/83/83 84/84/84 
f 84/84/84 83/83/83 85/85/85 86/86/86 
f 47/47/47 87/87/87 83/83/83 48/48/48 
f 87/87/87 88/88/88 85/85/85 83/83/83 
f 89/89/89 87/87/87 47/47/47 26/26/26 
f 88/88/88 87/87/87 89/89/89 90/90/90 
f 91/91/91 88/88/88 90/90/90 
f 25/25/25 91/91/91 90/90/90 23/23/23 
f 89/89/89 21/21/21 23/23/23 90/90/90 
f 26/26/26 19/19/19 21/21/21 89/89/89 
f 92/92/92 13/13/13 12/12/12 93/93/93 
f 13/13/13 94/94/94 95/95/95 9/9/9 
f 92/92/92 96/96/96 94/94/94 13/13/13 
f 97/97/97 10/10/10 9/9/9 95/95/95 
f 98/98/98 11/11/11 10/10/10 97/97/97 
f 99/99/99 6/6/6 11/11/11 98/98/98 
f 100/100/100 2/2/2 6/6/6 99/99/99 
f 3/3/3 2/2/2 100/100/100 101/101/101 
f 3/3/3 101/101/101 102/102/102 16/16/16 
f 103/103/103 18/18/18 16/16/16 102/102/102 
f 20/20/20 18/18/18 103/103/103 104/104/104 
f 20/20/20 104/104/104 105/105/105 22/22/22 
f 22/22/22 105/105/105 106/106/106 24/24/24 
f 107/107/107 53/53/53 54/54/54 108/108/108 
f 54/54/54 41/41/41 109/109/109 108/108/108 
f 40/40/40 37/37/37 41/41/41 
f 56/56/56 109/109/109 41/41/41 43/43/43 
f 109/109/109 56/56/56 58/58/58 110/110/110 
f 111/111/111 108/108/108 109/109/109 110/110/110 
f 110/110/110 58/58/58 60/60/60 112/112/112 
f 113/113/113 111/111/111 110/110/110 112/112/112 
f 112/112/112 60/60/60 66/66/66 
f 74/74/74 112/112/112 66/66/66 
f 74/74/74 76/76/76 113/113/113 112/112/112 
f 111/111/111 113/113/113 114/114/114 
f 108/108/108 111/111/111 114/114/114 107/107/107 
f 115/115/115 79/79/79 78/78/78 116/116/116 
f 71/71/71 117/117/117 116/116/116 78/78/78 
f 117/117/117 71/71/71 63/63/63 118/118/118 
f 119/119/119 118/118/118 63/63/63 62/62/62 
f 62/62/62 61/61/61 120/120/120 119/119/119 
f 61/61/61 82/82/82 121/121/121 120/120/120 
f 122/122/122 121/121/121 82/82/82 84/84/84 
f 84/84/84 86/86/86 123/123/123 122/122/122 
s off
f 40/40/40 41/41/41 54/54/54 
f 124/124/124 125/125/125 126/126/126 
s 1
f 127/3/127 128/2/128 129/1/129 130/4/130 
f 131/5/131 129/1/129 128/2/128 132/6/132 
f 133/9/133 134/8/134 135/7/135 136/10/136 
f 132/6/132 137/11/137 131/5/131 
f 138/13/138 139/12/139 134/8/134 133/9/133 
f 140/14/140 127/3/127 130/4/130 141/15/141 
f 142/16/142 127/3/127 140/14/140 
f 143/17/143 142/16/142 140/14/140 
f 144/18/144 142/16/142 143/17/143 145/19/145 
f 145/19/145 146/21/146 147/20/147 144/18/144 
f 146/21/146 148/23/148 149/22/149 147/20/147 
f 148/23/148 150/25/150 151/24/151 149/22/149 
f 145/19/145 143/17/143 152/27/152 153/26/153 
f 154/28/154 143/17/143 140/14/140 
f 141/15/141 155/29/155 154/28/154 140/14/140 
f 154/28/154 152/27/152 143/17/143 
f 152/27/152 154/28/154 155/29/155 156/30/156 
f 156/30/156 155/29/155 157/32/157 158/31/158 
f 159/34/159 160/33/160 157/32/157 161/35/161 
f 158/31/158 157/32/157 160/33/160 
f 158/31/158 160/33/160 162/36/162 163/37/163 
f 164/38/164 163/37/163 162/36/162 
f 165/39/165 163/37/163 164/38/164 
f 166/40/166 163/37/163 165/39/165 
f 167/42/167 163/37/163 168/41/168 169/43/169 
f 163/37/163 167/42/167 170/44/170 158/31/158 
f 158/31/158 170/44/170 152/27/152 156/30/156 
f 171/45/171 170/44/170 167/42/167 
f 171/45/171 167/42/167 169/43/169 172/46/172 
f 170/44/170 153/26/153 152/27/152 
f 170/44/170 171/45/171 173/47/173 153/26/153 
f 171/45/171 172/46/172 174/48/174 173/47/173 
f 160/33/160 159/34/159 175/49/175 162/36/162 
f 176/50/176 164/38/164 162/36/162 175/49/175 
f 164/38/164 176/50/176 177/51/177 165/39/165 
f 178/52/178 166/40/166 165/39/165 177/51/177 
f 179/53/179 180/54/180 166/40/166 178/52/178 
f 181/55/181 172/46/172 169/43/169 182/56/182 
f 183/57/183 181/55/181 182/56/182 184/58/184 
f 185/59/185 183/57/183 184/58/184 186/60/186 
f 181/55/181 187/62/187 188/61/188 172/46/172 
f 181/55/181 183/57/183 189/63/189 187/62/187 
f 183/57/183 185/59/185 190/64/190 189/63/189 
f 191/65/191 185/59/185 186/60/186 192/66/192 
f 193/68/193 194/67/194 185/59/185 191/65/191 
f 195/69/195 194/67/194 193/68/193 196/70/196 
f 194/67/194 190/64/190 185/59/185 
f 197/71/197 189/63/189 190/64/190 
f 197/71/197 190/64/190 194/67/194 195/69/195 
f 198/73/198 199/72/199 193/68/193 191/65/191 
f 191/65/191 192/66/192 200/74/200 198/73/198 
f 200/74/200 201/76/201 202/75/202 198/73/198 
f 196/70/196 193/68/193 199/72/199 203/77/203 
f 204/78/204 197/71/197 195/69/195 
f 195/69/195 205/80/205 206/79/206 204/78/204 
f 196/70/196 207/81/207 205/80/205 195/69/195 
f 203/77/203 207/81/207 196/70/196 
f 174/48/174 172/46/172 188/61/188 
f 208/82/208 174/48/174 188/61/188 
f 208/82/208 209/84/209 210/83/210 174/48/174 
f 211/85/211 210/83/210 209/84/209 212/86/212 
f 173/47/173 174/48/174 210/83/210 213/87/213 
f 213/87/213 210/83/210 211/85/211 214/88/214 
f 173/47/173 213/87/213 215/89/215 153/26/153 
f 214/88/214 216/90/216 215/89/215 213/87/213 
f 217/91/217 216/90/216 214/88/214 
f 216/90/216 217/91/217 150/25/150 148/23/148 
f 215/89/215 216/90/216 148/23/148 146/21/146 
f 146/21/146 145/19/145 153/26/153 215/89/215 
f 218/92/218 219/93/219 139/12/139 138/13/138 
f 138/13/138 133/9/133 220/95/220 221/94/221 
f 218/92/218 138/13/138 221/94/221 222/96/222 
f 133/9/133 136/10/136 223/97/223 220/95/220 
f 136/10/136 137/11/137 224/98/224 223/97/223 
f 137/11/137 132/6/132 225/99/225 224/98/224 
f 132/6/132 128/2/128 226/100/226 225/99/225 
f 226/100/226 128/2/128 127/3/127 227/101/227 
f 127/3/127 142/16/142 228/102/228 227/101/227 
f 229/103/229 228/102/228 142/16/142 144/18/144 
f 229/103/229 144/18/144 147/20/147 230/104/230 
f 231/105/231 230/104/230 147/20/147 149/22/149 
f 232/106/232 231/105/231 149/22/149 151/24/151 
f 180/54/180 179/53/179 233/107/233 234/108/234 
f 235/109/235 168/41/168 180/54/180 234/108/234 
f 166/40/166 168/41/168 163/37/163 
f 182/56/182 169/43/169 168/41/168 235/109/235 
f 235/109/235 236/110/236 184/58/184 182/56/182 
f 237/111/237 236/110/236 235/109/235 234/108/234 
f 236/110/236 238/112/238 186/60/186 184/58/184 
f 239/113/239 238/112/238 236/110/236 237/111/237 
f 238/112/238 192/66/192 186/60/186 
f 200/74/200 192/66/192 238/112/238 
f 239/113/239 201/76/201 200/74/200 238/112/238 
f 237/111/237 240/114/240 239/113/239 
f 240/114/240 237/111/237 234/108/234 233/107/233 
f 204/78/204 206/79/206 241/115/241 242/116/242 
f 242/116/242 243/117/243 197/71/197 204/78/204 
f 189/63/189 197/71/197 243/117/243 244/118/244 
f 189/63/189 244/118/244 245/119/245 187/62/187 
f 246/120/246 188/61/188 187/62/187 245/119/245 
f 247/121/247 208/82/208 188/61/188 246/120/246 
f 248/122/248 209/84/209 208/82/208 247/121/247 
f 249/123/249 212/86/212 209/84/209 248/122/248 
s off
f 166/40/166 180/54/180 168/41/168 
f 250/124/250 251/126/251 252/125/252 
s 1
f 1/127/1 4/128/4 253/129/253 254/130/254 
f 255/131/255 5/132/5 1/127/1 
f 256/133/256 5/132/5 255/131/255 
f 256/133/256 255/131/255 257/134/257 258/135/258 
f 259/136/259 260/137/260 258/135/258 257/134/257 
f 261/138/261 262/139/262 260/137/260 259/136/259 
f 263/140/263 29/141/29 32/142/32 
f 35/143/35 263/140/263 32/142/32 
f 263/140/263 15/144/15 29/141/29 
f 253/129/253 4/128/4 15/144/15 263/140/263 
f 263/140/263 35/143/35 264/145/264 265/146/265 
f 264/145/264 35/143/35 34/147/34 266/148/266 
f 267/149/267 76/150/76 268/151/268 
f 49/152/49 50/153/50 269/154/269 270/155/270 
f 266/148/266 34/147/34 49/152/49 270/155/270 
f 50/153/50 51/156/51 271/157/271 269/154/269 
f 272/158/272 273/159/273 269/154/269 271/157/271 
f 274/160/274 271/157/271 51/156/51 52/161/52 
f 274/160/274 52/161/52 53/162/53 275/163/275 
f 275/163/275 53/162/53 107/164/107 276/165/276 
f 267/149/267 113/166/113 76/150/76 
f 267/149/267 277/167/277 278/168/278 113/166/113 
f 113/166/113 278/168/278 279/169/279 114/170/114 
f 276/165/276 107/164/107 114/170/114 279/169/279 
f 268/151/268 280/171/280 277/167/277 267/149/267 
f 277/167/277 280/171/280 281/172/281 282/173/282 
f 254/130/254 257/134/257 255/131/255 1/127/1 
f 271/157/271 274/160/274 283/174/283 272/158/272 
f 274/160/274 275/163/275 284/175/284 283/174/283 
f 279/169/279 285/176/285 286/177/286 276/165/276 
f 278/168/278 287/178/287 285/176/285 279/169/279 
f 277/167/277 282/173/282 287/178/287 278/168/278 
f 287/178/287 282/173/282 288/179/288 289/180/289 
f 275/163/275 276/165/276 286/177/286 284/175/284 
f 290/181/290 291/182/291 283/174/283 284/175/284 
f 273/159/273 292/183/292 293/184/293 294/185/294 
f 272/158/272 295/186/295 292/183/292 273/159/273 
f 270/155/270 269/154/269 273/159/273 294/185/294 
f 282/173/282 281/172/281 296/187/296 288/179/288 
f 297/188/297 285/176/285 287/178/287 289/180/289 
f 298/189/298 286/177/286 285/176/285 297/188/297 
f 284/175/284 286/177/286 298/189/298 290/181/290 
f 295/186/295 272/158/272 283/174/283 291/182/291 
f 299/129/299 130/128/130 129/127/129 300/130/300 
f 301/131/301 129/127/129 131/132/131 
f 302/133/302 301/131/301 131/132/131 
f 302/133/302 303/135/303 304/134/304 301/131/301 
f 303/135/303 305/137/305 306/136/306 304/134/304 
f 305/137/305 307/139/307 308/138/308 306/136/306 
f 309/140/309 157/142/157 155/141/155 
f 161/143/161 157/142/157 309/140/309 
f 309/140/309 155/141/155 141/144/141 
f 299/129/299 309/140/309 141/144/141 130/128/130 
f 310/145/310 161/143/161 309/140/309 311/146/311 
f 159/147/159 161/143/161 310/145/310 312/148/312 
f 313/149/313 314/151/314 201/150/201 
f 315/154/315 176/153/176 175/152/175 316/155/316 
f 312/148/312 316/155/316 175/152/175 159/147/159 
f 176/153/176 315/154/315 317/157/317 177/156/177 
f 318/158/318 317/157/317 315/154/315 319/159/319 
f 177/156/177 317/157/317 320/160/320 178/161/178 
f 179/162/179 178/161/178 320/160/320 321/163/321 
f 233/164/233 179/162/179 321/163/321 322/165/322 
f 313/149/313 201/150/201 239/166/239 
f 313/149/313 239/166/239 323/168/323 324/167/324 
f 239/166/239 240/170/240 325/169/325 323/168/323 
f 240/170/240 233/164/233 322/165/322 325/169/325 
f 324/167/324 326/171/326 314/151/314 313/149/313 
f 324/167/324 327/173/327 328/172/328 326/171/326 
f 300/130/300 129/127/129 301/131/301 304/134/304 
f 317/157/317 318/158/318 329/174/329 320/160/320 
f 330/175/330 321/163/321 320/160/320 329/174/329 
f 325/169/325 322/165/322 331/177/331 332/176/332 
f 332/176/332 333/178/333 323/168/323 325/169/325 
f 324/167/324 323/168/323 333/178/333 327/173/327 
f 333/178/333 289/180/289 288/179/288 327/173/327 
f 331/177/331 322/165/322 321/163/321 330/175/330 
f 329/174/329 291/182/291 290/181/290 330/175/330 
f 293/184/293 292/183/292 319/159/319 334/185/334 
f 318/158/318 319/159/319 292/183/292 295/186/295 
f 319/159/319 315/154/315 316/155/316 334/185/334 
f 296/187/296 328/172/328 327/173/327 288/179/288 
f 297/188/297 289/180/289 333/178/333 332/176/332 
f 298/189/298 297/188/297 332/176/332 331/177/331 
f 298/189/298 331/177/331 330/175/330 290/181/290 
f 295/186/295 291/182/291 329/174/329 318/158/318 
f 260/190/260 262/191/262 335/192/335 336/193/336 
f 337/194/337 258/195/258 260/190/260 336/193/336 
f 338/196/338 337/194/337 336/193/336 339/197/339 
f 340/198/340 339/197/339 336/193/336 335/192/335 
f 341/199/341 339/197/339 340/198/340 
f 342/200/342 338/196/338 339/197/339 341/199/341 
f 8/201/8 7/202/7 338/196/338 342/200/342 
f 258/195/258 337/194/337 343/203/343 256/204/256 
f 337/194/337 338/196/338 7/202/7 343/203/343 
f 343/203/343 7/202/7 10/205/10 11/206/11 
f 5/207/5 256/204/256 343/203/343 11/206/11 
f 12/208/12 8/201/8 342/200/342 344/209/344 
f 344/209/344 342/200/342 341/199/341 345/210/345 
f 345/210/345 341/199/341 346/211/346 347/212/347 
f 346/211/346 348/213/348 349/214/349 347/212/347 
f 348/213/348 350/215/350 351/216/351 349/214/349 
f 350/215/350 352/217/352 353/218/353 351/216/351 
s off
f 344/209/344 354/219/354 93/220/93 12/208/12 
f 344/209/344 345/210/345 354/219/354 
s 1
f 305/190/305 355/193/355 356/192/356 307/191/307 
f 357/194/357 355/193/355 305/190/305 303/195/303 
f 355/193/355 357/194/357 358/196/358 359/197/359 
f 360/198/360 356/192/356 355/193/355 359/197/359 
f 361/199/361 360/198/360 359/197/359 
f 362/200/362 361/199/361 359/197/359 358/196/358 
f 358/196/358 135/202/135 134/201/134 362/200/362 
f 363/203/363 357/194/357 303/195/303 302/204/302 
f 357/194/357 363/203/363 135/202/135 358/196/358 
f 363/203/363 137/206/137 136/205/136 135/202/135 
f 363/203/363 302/204/302 131/207/131 137/206/137 
f 139/208/139 364/209/364 362/200/362 134/201/134 
f 361/199/361 362/200/362 364/209/364 365/210/365 
f 366/211/366 361/199/361 365/210/365 367/212/367 
f 366/211/366 367/212/367 368/214/368 369/213/369 
f 370/216/370 371/215/371 369/213/369 368/214/368 
f 353/218/353 352/217/352 371/215/371 370/216/370 
s off
f 219/220/219 372/219/372 364/209/364 139/208/139 
f 364/209/364 372/219/372 365/210/365 
s 1
f 373/221/373 374/222/374 280/223/280 268/224/268 
f 375/225/375 374/222/374 373/221/373 
f 374/222/374 376/226/376 281/227/281 280/223/280 
f 377/228/377 374/222/374 375/225/375 378/229/378 
f 379/230/379 376/226/376 374/222/374 377/228/377 
f 378/229/378 380/231/380 381/232/381 382/233/382 
f 377/228/377 378/229/378 382/233/382 383/234/383 
f 383/234/383 384/235/384 379/230/379 377/228/377 
f 380/231/380 75/236/75 73/237/73 72/238/72 
f 75/236/75 380/231/380 378/229/378 375/225/375 
f 75/236/75 375/225/375 373/221/373 76/239/76 
f 268/224/268 76/239/76 373/221/373 
f 380/231/380 72/238/72 77/240/77 381/232/381 
f 381/232/381 77/240/77 81/241/81 124/242/124 
f 381/232/381 124/242/124 385/243/385 382/233/382 
f 385/243/385 386/244/386 383/234/383 382/233/382 
f 386/244/386 384/235/384 383/234/383 
f 384/235/384 386/244/386 387/245/387 388/246/388 
f 389/247/389 386/244/386 385/243/385 124/242/124 
f 296/248/296 281/227/281 376/226/376 390/249/390 
f 376/226/376 379/230/379 391/250/391 390/249/390 
f 379/230/379 384/235/384 388/246/388 391/250/391 
f 386/244/386 389/247/389 392/251/392 387/245/387 
f 393/221/393 314/224/314 326/223/326 394/222/394 
f 395/225/395 393/221/393 394/222/394 
f 394/222/394 326/223/326 328/227/328 396/226/396 
f 395/225/395 394/222/394 397/228/397 398/229/398 
f 399/230/399 397/228/397 394/222/394 396/226/396 
f 400/232/400 401/231/401 398/229/398 402/233/402 
f 402/233/402 398/229/398 397/228/397 403/234/403 
f 403/234/403 397/228/397 399/230/399 404/235/404 
f 198/237/198 202/236/202 401/231/401 199/238/199 
f 398/229/398 401/231/401 202/236/202 395/225/395 
f 393/221/393 395/225/395 202/236/202 201/239/201 
f 314/224/314 393/221/393 201/239/201 
f 203/240/203 199/238/199 401/231/401 400/232/400 
f 207/241/207 203/240/203 400/232/400 250/242/250 
f 405/243/405 250/242/250 400/232/400 402/233/402 
f 403/234/403 406/244/406 405/243/405 402/233/402 
f 406/244/406 403/234/403 404/235/404 
f 404/235/404 388/246/388 387/245/387 406/244/406 
f 405/243/405 406/244/406 407/247/407 250/242/250 
f 296/248/296 390/249/390 396/226/396 328/227/328 
f 391/250/391 399/230/399 396/226/396 390/249/390 
f 388/246/388 404/235/404 399/230/399 391/250/391 
f 392/251/392 407/247/407 406/244/406 387/245/387 
f 408/252/408 409/253/409 410/254/410 411/255/411 
f 412/256/412 413/257/413 410/254/410 409/253/409 
f 414/258/414 409/253/409 408/252/408 415/259/415 
f 416/260/416 417/261/417 415/259/415 408/252/408 
f 411/255/411 416/260/416 408/252/408 
f 418/262/418 419/263/419 416/260/416 411/255/411 
f 420/264/420 417/261/417 416/260/416 419/263/419 
f 421/265/421 422/266/422 423/267/423 424/268/424 
f 425/269/425 412/256/412 409/253/409 414/258/414 
f 414/258/414 426/270/426 427/271/427 425/269/425 
f 426/270/426 414/258/414 415/259/415 428/272/428 
f 429/273/429 428/272/428 415/259/415 417/261/417 
f 430/274/430 429/273/429 417/261/417 431/275/431 
f 432/276/432 433/277/433 430/274/430 431/275/431 
f 434/278/434 433/277/433 432/276/432 
f 435/279/435 430/274/430 433/277/433 
f 421/265/421 429/273/429 430/274/430 435/279/435 
f 424/268/424 428/272/428 429/273/429 421/265/421 
f 436/280/436 428/272/428 424/268/424 437/281/437 
f 424/268/424 423/267/423 438/282/438 437/281/437 
f 426/270/426 428/272/428 436/280/436 
f 439/283/439 427/271/427 426/270/426 436/280/436 
f 440/284/440 427/271/427 439/283/439 
f 441/285/441 440/284/440 439/283/439 
f 442/252/442 443/255/443 444/254/444 445/253/445 
f 446/256/446 445/253/445 444/254/444 447/257/447 
f 448/258/448 449/259/449 442/252/442 445/253/445 
f 450/260/450 442/252/442 449/259/449 451/261/451 
f 443/255/443 442/252/442 450/260/450 
f 452/262/452 443/255/443 450/260/450 453/263/453 
f 454/264/454 453/263/453 450/260/450 451/261/451 
f 455/265/455 456/268/456 457/267/457 458/266/458 
f 459/269/459 448/258/448 445/253/445 446/256/446 
f 448/258/448 459/269/459 460/271/460 461/270/461 
f 449/259/449 448/258/448 461/270/461 462/272/462 
f 463/273/463 451/261/451 449/259/449 462/272/462 
f 464/274/464 465/275/465 451/261/451 463/273/463 
f 466/276/466 465/275/465 464/274/464 467/277/467 
f 468/278/468 466/276/466 467/277/467 
f 469/279/469 467/277/467 464/274/464 
f 455/265/455 469/279/469 464/274/464 463/273/463 
f 456/268/456 455/265/455 463/273/463 462/272/462 
f 470/280/470 471/281/471 456/268/456 462/272/462 
f 456/268/456 471/281/471 472/282/472 457/267/457 
f 461/270/461 470/280/470 462/272/462 
f 473/283/473 470/280/470 461/270/461 460/271/460 
f 474/284/474 473/283/473 460/271/460 
f 475/285/475 473/283/473 474/284/474 
s off
f 476/286/476 477/287/477 478/288/478 
f 477/287/477 479/289/479 478/288/478 
f 479/289/479 480/290/480 478/288/478 
f 480/290/480 481/291/481 478/288/478 
f 438/292/438 482/293/482 478/288/478 
f 481/291/481 483/294/483 478/288/478 
f 483/294/483 441/295/441 478/288/478 
f 436/296/436 437/297/437 478/288/478 
f 437/297/437 438/292/438 478/288/478 
f 439/298/439 436/296/436 478/288/478 
f 441/295/441 439/298/439 478/288/478 
f 482/293/482 484/299/484 478/288/478 
f 484/299/484 476/286/476 478/288/478 
f 485/286/485 486/288/486 487/287/487 
f 487/287/487 486/288/486 488/289/488 
f 488/289/488 486/288/486 489/290/489 
f 489/290/489 486/288/486 490/291/490 
f 472/292/472 486/288/486 491/293/491 
f 490/291/490 486/288/486 492/294/492 
f 492/294/492 486/288/486 475/295/475 
f 470/296/470 486/288/486 471/297/471 
f 471/297/471 486/288/486 472/292/472 
f 473/298/473 486/288/486 470/296/470 
f 475/295/475 486/288/486 473/298/473 
f 491/293/491 486/288/486 493/299/493 
f 493/299/493 486/288/486 485/286/485 
s 1
f 476/300/476 411/301/411 410/302/410 477/303/477 
f 413/304/413 479/305/479 477/303/477 410/302/410 
f 480/306/480 479/305/479 413/304/413 
f 431/307/431 417/308/417 420/309/420 494/310/494 
f 495/311/495 432/312/432 431/307/431 494/310/494 
f 434/313/434 432/312/432 495/311/495 
f 496/314/496 419/315/419 418/316/418 497/317/497 
f 423/318/423 420/309/420 419/315/419 496/314/496 
f 438/319/438 423/318/423 496/314/496 482/320/482 
f 422/321/422 494/310/494 420/309/420 423/318/423 
f 482/320/482 496/314/496 497/317/497 484/322/484 
f 418/316/418 411/301/411 497/317/497 
f 422/321/422 495/311/495 494/310/494 
f 497/317/497 411/301/411 476/300/476 484/322/484 
f 485/300/485 487/303/487 444/302/444 443/301/443 
f 447/304/447 444/302/444 487/303/487 488/305/488 
f 489/306/489 447/304/447 488/305/488 
f 465/307/465 498/310/498 454/309/454 451/308/451 
f 499/311/499 498/310/498 465/307/465 466/312/466 
f 468/313/468 499/311/499 466/312/466 
f 500/314/500 501/317/501 452/316/452 453/315/453 
f 457/318/457 500/314/500 453/315/453 454/309/454 
f 472/319/472 491/320/491 500/314/500 457/318/457 
f 458/321/458 457/318/457 454/309/454 498/310/498 
f 491/320/491 493/322/493 501/317/501 500/314/500 
f 452/316/452 501/317/501 443/301/443 
f 458/321/458 498/310/498 499/311/499 
f 501/317/501 493/322/493 485/300/485 443/301/443 
f 502/323/502 413/324/413 412/325/412 
f 480/326/480 413/324/413 502/323/502 481/327/481 
f 503/328/503 502/323/502 412/325/412 425/329/425 
f 483/330/483 481/327/481 502/323/502 503/328/503 
f 441/331/441 483/330/483 503/328/503 440/332/440 
f 425/329/425 427/333/427 440/332/440 503/328/503 
f 504/323/504 446/325/446 447/324/447 
f 489/326/489 490/327/490 504/323/504 447/324/447 
f 505/328/505 459/329/459 446/325/446 504/323/504 
f 492/330/492 505/328/505 504/323/504 490/327/490 
f 475/331/475 474/332/474 505/328/505 492/330/492 
f 459/329/459 505/328/505 474/332/474 460/333/460 
f 506/334/506 507/335/507 508/336/508 509/337/509 
f 126/338/126 510/339/510 511/340/511 512/341/512 
f 351/342/351 353/343/353 513/344/513 514/345/514 
s off
f 345/346/345 347/347/347 514/345/514 
f 347/347/347 349/348/349 514/345/514 
f 349/348/349 351/342/351 514/345/514 
f 354/349/354 345/346/345 514/345/514 
f 515/350/515 516/351/516 510/339/510 126/338/126 
f 517/334/517 518/345/518 514/345/514 506/334/506 
f 519/352/519 520/353/520 518/345/518 517/334/517 
f 521/354/521 522/355/522 520/353/520 519/352/519 
f 523/356/523 524/357/524 522/355/522 521/354/521 
f 523/356/523 525/358/525 524/357/524 
f 526/359/526 527/360/527 524/357/524 525/358/525 
f 528/361/528 529/362/529 516/351/516 515/350/515 
f 528/361/528 530/363/530 531/364/531 529/362/529 
f 532/365/532 533/366/533 531/364/531 530/363/530 
s 1
f 25/367/25 506/334/506 509/337/509 91/368/91 
f 24/369/24 506/334/506 25/367/25 
f 106/370/106 506/334/506 24/369/24 
f 509/337/509 510/339/510 88/371/88 91/368/91 
f 85/372/85 88/371/88 510/339/510 
f 123/373/123 86/374/86 510/339/510 
f 534/375/534 80/376/80 79/377/79 
f 115/378/115 534/375/534 79/377/79 
f 80/376/80 534/375/534 125/379/125 81/380/81 
f 124/381/124 81/380/81 125/379/125 
f 86/374/86 85/372/85 510/339/510 
s off
f 115/378/115 116/382/116 528/361/528 515/350/515 
f 116/382/116 117/383/117 530/363/530 528/361/528 
f 117/383/117 118/384/118 532/365/532 530/363/530 
f 119/385/119 533/366/533 532/365/532 118/384/118 
f 120/386/120 531/364/531 533/366/533 119/385/119 
f 121/387/121 529/362/529 531/364/531 120/386/120 
f 122/388/122 516/351/516 529/362/529 121/387/121 
f 123/373/123 510/339/510 516/351/516 122/388/122 
f 534/375/534 115/378/115 515/350/515 126/338/126 
f 94/389/94 518/345/518 520/353/520 95/390/95 
f 96/391/96 514/345/514 518/345/518 94/389/94 
f 95/390/95 520/353/520 522/355/522 97/392/97 
f 97/392/97 522/355/522 524/357/524 98/393/98 
f 98/393/98 524/357/524 527/360/527 99/394/99 
f 99/394/99 527/360/527 526/359/526 100/395/100 
f 100/395/100 526/359/526 525/358/525 101/396/101 
f 101/396/101 525/358/525 523/356/523 102/397/102 
f 103/398/103 102/397/102 523/356/523 521/354/521 
f 104/399/104 103/398/103 521/354/521 519/352/519 
f 105/400/105 104/399/104 519/352/519 517/334/517 
f 106/370/106 105/400/105 517/334/517 506/334/506 
f 92/401/92 93/402/93 514/345/514 
f 96/391/96 92/401/92 514/345/514 
f 93/402/93 354/349/354 514/345/514 
f 125/379/125 534/375/534 126/338/126 
f 389/403/389 124/381/124 126/338/126 
s 1
f 510/339/510 509/337/509 508/336/508 511/340/511 
f 389/403/389 126/338/126 512/341/512 392/404/392 
f 507/335/507 506/334/506 514/345/514 513/344/513 
f 508/336/508 507/335/507 535/334/535 536/337/536 
f 251/338/251 512/341/512 511/340/511 537/339/537 
f 370/342/370 538/345/538 513/344/513 353/343/353 
s off
f 365/346/365 538/345/538 367/347/367 
f 367/347/367 538/345/538 368/348/368 
f 368/348/368 538/345/538 370/342/370 
f 372/349/372 538/345/538 365/346/365 
f 537/339/537 539/351/539 540/350/540 251/338/251 
f 538/345/538 541/345/541 542/334/542 535/334/535 
f 541/345/541 543/353/543 544/352/544 542/334/542 
f 543/353/543 545/355/545 546/354/546 544/352/544 
f 545/355/545 547/357/547 548/356/548 546/354/546 
f 548/356/548 547/357/547 549/358/549 
f 547/357/547 550/360/550 551/359/551 549/358/549 
f 539/351/539 552/362/552 553/361/553 540/350/540 
f 553/361/553 552/362/552 554/364/554 555/363/555 
f 554/364/554 556/366/556 557/365/557 555/363/555 
s 1
f 536/337/536 535/334/535 150/367/150 217/368/217 
f 151/369/151 150/367/150 535/334/535 
f 232/370/232 151/369/151 535/334/535 
f 536/337/536 217/368/217 214/371/214 537/339/537 
f 211/372/211 537/339/537 214/371/214 
f 249/373/249 537/339/537 212/374/212 
f 558/375/558 206/377/206 205/376/205 
f 241/378/241 206/377/206 558/375/558 
f 252/379/252 558/375/558 205/376/205 207/380/207 
f 250/381/250 252/379/252 207/380/207 
f 212/374/212 537/339/537 211/372/211 
s off
f 241/378/241 540/350/540 553/361/553 242/382/242 
f 242/382/242 553/361/553 555/363/555 243/383/243 
f 243/383/243 555/363/555 557/365/557 244/384/244 
f 557/365/557 556/366/556 245/385/245 244/384/244 
f 556/366/556 554/364/554 246/386/246 245/385/245 
f 554/364/554 552/362/552 247/387/247 246/386/246 
f 552/362/552 539/351/539 248/388/248 247/387/247 
f 539/351/539 537/339/537 249/373/249 248/388/248 
f 558/375/558 251/338/251 540/350/540 241/378/241 
f 543/353/543 541/345/541 221/389/221 220/390/220 
f 541/345/541 538/345/538 222/391/222 221/389/221 
f 545/355/545 543/353/543 220/390/220 223/392/223 
f 547/357/547 545/355/545 223/392/223 224/393/224 
f 550/360/550 547/357/547 224/393/224 225/394/225 
f 551/359/551 550/360/550 225/394/225 226/395/226 
f 549/358/549 551/359/551 226/395/226 227/396/227 
f 548/356/548 549/358/549 227/396/227 228/397/228 
f 229/398/229 546/354/546 548/356/548 228/397/228 
f 230/399/230 544/352/544 546/354/546 229/398/229 
f 231/400/231 542/334/542 544/352/544 230/399/230 
f 232/370/232 535/334/535 542/334/542 231/400/231 
f 218/401/218 538/345/538 219/402/219 
f 222/391/222 538/345/538 218/401/218 
f 219/402/219 538/345/538 372/349/372 
f 252/379/252 251/338/251 558/375/558 
f 407/403/407 251/338/251 250/381/250 
s 1
f 508/336/508 536/337/536 537/339/537 511/340/511 
f 512/341/512 251/338/251 407/403/407 392/404/392 
f 507/335/507 513/344/513 538/345/538 535/334/535 
f 559/405/559 560/406/559 561/407/559 562/408/559 
# 453 polygons - 156 triangles

#
# object Parabrisas
#

v  9.7883 10.8898 -5.1147
v  11.9816 10.2640 -5.4940
v  10.9550 10.2703 -7.9888
v  8.7324 10.8697 -8.0253
v  10.3847 10.8607 -2.5188
v  12.6714 10.2739 -2.8239
v  5.0418 12.6704 -7.4146
v  5.8794 12.8113 -4.4567
v  3.1621 13.4578 -7.1646
v  3.8879 13.6202 -4.3340
v  5.9025 12.9462 -3.0891
v  6.3874 12.8236 -0.0119
v  10.4257 10.8984 -0.0119
v  12.9207 10.2708 -0.0119
v  4.2044 13.6956 -0.0119
v  10.9550 10.2703 7.9650
v  11.9816 10.2640 5.4701
v  9.7883 10.8898 5.0909
v  8.7324 10.8697 8.0015
v  12.6714 10.2739 2.8000
v  10.3847 10.8607 2.4950
v  5.8794 12.8113 4.4328
v  5.0418 12.6704 7.3907
v  3.8879 13.6202 4.3101
v  3.1621 13.4578 7.1408
v  5.9025 12.9462 3.0652
# 26 vertices

vn 0.3401 0.9353 -0.0980
vn 0.1945 0.9793 -0.0564
vn 0.1826 0.9770 -0.1103
vn 0.3403 0.9307 -0.1342
vn 0.3311 0.9427 -0.0401
vn 0.1909 0.9810 -0.0352
vn 0.3828 0.9065 -0.1781
vn 0.3960 0.9098 -0.1245
vn 0.3301 0.9304 -0.1592
vn 0.3326 0.9381 -0.0969
vn 0.3815 0.9228 -0.0531
vn 0.4039 0.9148 0.0000
vn 0.3382 0.9411 0.0000
vn 0.1899 0.9818 0.0000
vn 0.3413 0.9399 -0.0000
vn 0.1826 0.9770 0.1103
vn 0.1945 0.9793 0.0564
vn 0.3401 0.9353 0.0980
vn 0.3403 0.9307 0.1342
vn 0.1909 0.9810 0.0352
vn 0.3311 0.9427 0.0401
vn 0.3960 0.9098 0.1245
vn 0.3828 0.9065 0.1781
vn 0.3326 0.9381 0.0969
vn 0.3301 0.9304 0.1592
vn 0.3815 0.9228 0.0531
# 26 vertex normals

vt 0.6597 0.7241 0.0000
vt 0.6832 0.6689 0.0000
vt 0.7593 0.6661 0.0000
vt 0.7466 0.7554 0.0000
vt 0.5837 0.7324 0.0000
vt 0.5959 0.6765 0.0000
vt 0.6966 0.8333 0.0000
vt 0.6216 0.8094 0.0000
vt 0.7170 0.8362 0.0000
vt 0.6424 0.8668 0.0000
vt 0.6020 0.8173 0.0000
vt 0.5069 0.8167 0.0000
vt 0.5083 0.7310 0.0000
vt 0.5099 0.6797 0.0000
vt 0.5053 0.8753 0.0000
# 15 texture coords

o Parabrisas
g Parabrisas
usemtl Material__6
s 1
f 563/409/560 564/410/561 565/411/562 566/412/563 
f 567/413/564 568/414/565 564/410/561 563/409/560 
f 566/412/563 569/415/566 570/416/567 563/409/560 
f 569/415/566 571/417/568 572/418/569 570/416/567 
f 573/419/570 567/413/564 563/409/560 570/416/567 
f 573/419/570 570/416/567 572/418/569 
f 567/413/564 573/419/570 574/420/571 575/421/572 
f 576/422/573 568/414/565 567/413/564 575/421/572 
f 573/419/570 572/418/569 577/423/574 574/420/571 
f 578/411/575 579/410/576 580/409/577 581/412/578 
f 579/410/576 582/414/579 583/413/580 580/409/577 
f 581/412/578 580/409/577 584/416/581 585/415/582 
f 585/415/582 584/416/581 586/418/583 587/417/584 
f 588/419/585 584/416/581 580/409/577 583/413/580 
f 588/419/585 586/418/583 584/416/581 
f 583/413/580 575/421/572 574/420/571 588/419/585 
f 576/422/573 575/421/572 583/413/580 582/414/579 
f 577/423/574 586/418/583 588/419/585 574/420/571 
# 16 polygons - 2 triangles

#
# object Parrilla
#

v  24.5648 6.9363 -4.2398
v  25.4021 6.3760 -4.0547
v  24.5896 6.8804 -4.5745
v  24.7307 7.1513 -2.2743
v  25.6224 6.6914 -2.2103
v  24.8762 7.1584 -0.0119
v  25.7168 6.7210 -0.0119
v  24.5648 6.9363 4.2160
v  24.5896 6.8804 4.5506
v  25.4021 6.3760 4.0309
v  25.6224 6.6914 2.1864
v  24.7307 7.1513 2.2505
v  24.6543 6.2947 -5.3714
v  25.1728 5.9915 -4.8020
v  24.9139 5.6239 -5.4522
v  24.6546 5.7921 -5.8118
v  24.2816 4.3571 -7.0386
v  25.0855 4.0069 -5.7595
v  25.7476 3.8542 -4.0708
v  26.1534 3.8978 -2.0650
v  26.2417 3.8850 -0.0119
v  24.9139 5.6239 5.4283
v  25.1728 5.9915 4.7781
v  24.6543 6.2947 5.3475
v  24.6546 5.7921 5.7880
v  24.2816 4.3571 7.0147
v  25.0855 4.0069 5.7356
v  25.7476 3.8542 4.0469
v  26.1534 3.8978 2.0411
v  26.2219 4.2572 2.5261
v  26.2219 4.2572 -2.5506
v  25.9970 5.5328 -2.5506
v  25.9970 5.5328 2.5261
# 33 vertices

vn 0.5387 0.8339 -0.1198
vn 0.8338 0.4736 -0.2836
vn 0.5885 0.7673 -0.2548
vn 0.4371 0.8959 -0.0794
vn 0.7934 0.5976 -0.1155
vn 0.4360 0.8999 0.0000
vn 0.8063 0.5915 0.0000
vn 0.5387 0.8339 0.1198
vn 0.5885 0.7673 0.2548
vn 0.8338 0.4736 0.2836
vn 0.7934 0.5976 0.1155
vn 0.4371 0.8959 0.0794
vn 0.7411 0.5192 -0.4257
vn 0.8571 0.2720 -0.4375
vn 0.8534 0.2149 -0.4750
vn 0.8374 0.2975 -0.4585
vn 0.8032 0.1289 -0.5815
vn 0.8919 0.1571 -0.4241
vn 0.9531 0.1293 -0.2735
vn 0.9820 0.1476 -0.1182
vn 0.9902 0.1395 0.0000
vn 0.8534 0.2149 0.4750
vn 0.8571 0.2720 0.4375
vn 0.7411 0.5192 0.4257
vn 0.8374 0.2975 0.4585
vn 0.8032 0.1289 0.5815
vn 0.8919 0.1571 0.4241
vn 0.9531 0.1293 0.2735
vn 0.9820 0.1476 0.1182
vn 0.9848 0.1736 -0.0000
# 30 vertex normals

vt 0.6257 0.2685 0.0000
vt 0.6530 0.2476 0.0000
vt 0.6546 0.2658 0.0000
vt 0.5755 0.2827 0.0000
vt 0.5703 0.2582 0.0000
vt 0.4943 0.2660 0.0000
vt 0.4939 0.2492 0.0000
vt 0.6826 0.2436 0.0000
vt 0.6624 0.2323 0.0000
vt 0.6854 0.2185 0.0000
vt 0.6981 0.2248 0.0000
vt 0.6544 0.2656 0.0000
vt 0.6358 0.2467 0.0000
vt 0.7417 0.1709 0.0000
vt 0.6963 0.1578 0.0000
vt 0.6365 0.1521 0.0000
vt 0.5655 0.1538 0.0000
vt 0.5706 0.2585 0.0000
vt 0.4928 0.2596 0.0000
vt 0.4928 0.1534 0.0000
vt 0.4355 0.1748 0.0000
vt 0.5541 0.1748 0.0000
vt 0.5541 0.2105 0.0000
vt 0.4355 0.2105 0.0000
# 24 texture coords

o Parrilla
g Parrilla
usemtl Material__6
s 1
f 589/424/586 590/425/587 591/426/588 
f 590/425/587 589/424/586 592/427/589 593/428/590 
f 593/428/590 592/427/589 594/429/591 595/430/592 
f 596/424/593 597/426/594 598/425/595 
f 598/425/595 599/428/596 600/427/597 596/424/593 
f 594/429/591 600/427/597 599/428/596 595/430/592 
f 601/431/598 602/432/599 603/433/600 604/434/601 
f 591/435/588 590/436/587 602/432/599 601/431/598 
f 603/433/600 605/437/602 604/434/601 
f 603/433/600 606/438/603 605/437/602 
f 606/438/603 603/433/600 602/432/599 607/439/604 
f 590/436/587 607/439/604 602/432/599 
f 608/440/605 607/439/604 590/436/587 593/441/590 
f 608/440/605 593/441/590 595/442/592 609/443/606 
f 610/433/607 611/432/608 612/431/609 613/434/610 
f 597/435/594 612/431/609 611/432/608 598/436/595 
f 610/433/607 613/434/610 614/437/611 
f 610/433/607 614/437/611 615/438/612 
f 611/432/608 610/433/607 615/438/612 616/439/613 
f 598/436/595 611/432/608 616/439/613 
f 598/436/595 616/439/613 617/440/614 599/441/596 
f 617/440/614 609/443/606 595/442/592 599/441/596 
f 618/444/615 619/445/615 620/446/615 621/447/615 
# 15 polygons - 8 triangles

