# 3ds Max Wavefront OBJ Exporter v0.99 - (c)2007 guruware
# File Created: 29.03.2025 16:34:37

mtllib Cofre.mtl

#
# object Cofre
#

v  13.7552 -3.3676 -4.2398
v  11.6081 -2.2602 -5.4631
v  11.3805 -2.0529 -2.9759
v  13.9211 -3.1526 -2.2744
v  11.5006 -1.9982 -0.0119
v  14.0666 -3.1454 -0.0119
v  8.4155 -1.2284 -4.2528
v  9.0219 -1.3610 -6.2849
v  8.7754 -1.1866 -2.2580
v  6.9493 -0.8635 -6.9456
v  6.4834 -0.8492 -5.0253
v  6.3756 -0.6745 -2.4842
v  4.0364 -0.4340 -7.5939
v  1.1720 -0.0399 -5.4940
v  0.1454 -0.0336 -7.9888
v  1.8618 -0.0300 -2.8239
v  0.0061 -0.0431 -8.2206
v  8.6808 -1.1317 -0.0119
v  6.2759 -0.6263 -0.0119
v  2.1111 -0.0330 -0.0119
v  11.3805 -2.0529 2.9520
v  11.6081 -2.2602 5.4393
v  13.7552 -3.3676 4.2160
v  13.9211 -3.1526 2.2505
v  8.4155 -1.2284 4.2290
v  9.0219 -1.3610 6.2611
v  8.7754 -1.1866 2.2341
v  6.4834 -0.8492 5.0015
v  6.9493 -0.8635 6.9217
v  6.3756 -0.6745 2.4603
v  4.0364 -0.4340 7.5701
v  1.1720 -0.0399 5.4701
v  0.1454 -0.0336 7.9650
v  1.8618 -0.0300 2.8000
v  0.0061 -0.0431 8.1967
# 35 vertices

vn 0.5387 0.8339 -0.1198
vn 0.4262 0.8918 -0.1518
vn 0.3499 0.9358 -0.0424
vn 0.4371 0.8959 -0.0794
vn 0.3527 0.9357 0.0000
vn 0.4360 0.8999 0.0000
vn 0.2360 0.9713 -0.0292
vn 0.3062 0.9490 -0.0746
vn 0.2623 0.9643 -0.0365
vn 0.2233 0.9687 -0.1082
vn 0.1718 0.9851 -0.0096
vn 0.1778 0.9834 -0.0361
vn 0.1661 0.9639 -0.2080
vn 0.1945 0.9793 -0.0564
vn 0.1826 0.9770 -0.1103
vn 0.1909 0.9810 -0.0352
vn 0.1643 0.8608 -0.4817
vn 0.2486 0.9686 0.0000
vn 0.1725 0.9850 0.0000
vn 0.1899 0.9818 0.0000
vn 0.3499 0.9358 0.0424
vn 0.4262 0.8918 0.1518
vn 0.5387 0.8339 0.1198
vn 0.4371 0.8959 0.0794
vn 0.2360 0.9713 0.0292
vn 0.3062 0.9490 0.0746
vn 0.2623 0.9643 0.0365
vn 0.1718 0.9851 0.0096
vn 0.2233 0.9687 0.1082
vn 0.1778 0.9834 0.0361
vn 0.1661 0.9639 0.2080
vn 0.1945 0.9793 0.0564
vn 0.1826 0.9770 0.1103
vn 0.1909 0.9810 0.0352
vn 0.1643 0.8608 0.4817
# 35 vertex normals

vt 0.6876 0.3862 0.0000
vt 0.7157 0.4193 0.0000
vt 0.6120 0.4298 0.0000
vt 0.5530 0.3771 0.0000
vt 0.5149 0.4205 0.0000
vt 0.5145 0.3745 0.0000
vt 0.6411 0.4911 0.0000
vt 0.7383 0.4841 0.0000
vt 0.5788 0.4949 0.0000
vt 0.7437 0.5015 0.0000
vt 0.6813 0.5478 0.0000
vt 0.5878 0.5585 0.0000
vt 0.7746 0.5911 0.0000
vt 0.6655 0.6455 0.0000
vt 0.7328 0.6347 0.0000
vt 0.6061 0.6505 0.0000
vt 0.7692 0.6303 0.0000
vt 0.5138 0.5045 0.0000
vt 0.5133 0.5808 0.0000
vt 0.5131 0.6513 0.0000
vt 0.4160 0.4293 0.0000
vt 0.2752 0.4328 0.0000
vt 0.2981 0.3848 0.0000
vt 0.4506 0.3767 0.0000
vt 0.5145 0.3744 0.0000
vt 0.5145 0.4192 0.0000
vt 0.3882 0.5015 0.0000
vt 0.2584 0.4684 0.0000
vt 0.4498 0.4998 0.0000
vt 0.3549 0.5541 0.0000
vt 0.2461 0.5098 0.0000
vt 0.4437 0.5612 0.0000
vt 0.2262 0.5853 0.0000
vt 0.3400 0.6433 0.0000
vt 0.2860 0.6369 0.0000
vt 0.4035 0.6479 0.0000
vt 0.2347 0.6267 0.0000
vt 0.5153 0.5061 0.0000
vt 0.5120 0.5797 0.0000
vt 0.5136 0.6517 0.0000
# 40 texture coords

o Cofre
g Cofre
usemtl Material__6
s 1
f 1/1/1 2/2/2 3/3/3 4/4/4 
f 5/5/5 6/6/6 4/4/4 3/3/3 
f 7/7/7 3/3/3 2/2/2 8/8/8 
f 9/9/9 3/3/3 7/7/7 
f 8/8/8 10/10/10 11/11/11 7/7/7 
f 7/7/7 11/11/11 12/12/12 9/9/9 
f 13/13/13 14/14/14 11/11/11 10/10/10 
f 15/15/15 14/14/14 13/13/13 
f 11/11/11 14/14/14 16/16/16 12/12/12 
f 13/13/13 17/17/17 15/15/15 
f 5/5/5 3/3/3 9/9/9 18/18/18 
f 9/9/9 12/12/12 19/19/19 18/18/18 
f 12/12/12 16/16/16 20/20/20 19/19/19 
f 21/21/21 22/22/22 23/23/23 24/24/24 
f 24/24/24 6/25/6 5/26/5 21/21/21 
f 25/27/25 26/28/26 22/22/22 21/21/21 
f 27/29/27 25/27/25 21/21/21 
f 28/30/28 29/31/29 26/28/26 25/27/25 
f 25/27/25 27/29/27 30/32/30 28/30/28 
f 31/33/31 29/31/29 28/30/28 32/34/32 
f 33/35/33 31/33/31 32/34/32 
f 28/30/28 30/32/30 34/36/34 32/34/32 
f 31/33/31 33/35/33 35/37/35 
f 5/26/5 18/38/18 27/29/27 21/21/21 
f 19/39/19 30/32/30 27/29/27 18/38/18 
f 20/40/20 34/36/34 30/32/30 19/39/19 
# 20 polygons - 6 triangles

