# 3ds Max Wavefront OBJ Exporter v0.99 - (c)2007 guruware
# File Created: 25.03.2025 12:19:54

mtllib DadoAnimales.mtl

#
# object Dado
#

v  -1.5000 -1.5000 1.5000
v  -1.5000 -1.5000 -1.5000
v  1.5000 -1.5000 -1.5000
v  1.5000 -1.5000 1.5000
v  -1.5000 1.5000 1.5000
v  1.5000 1.5000 1.5000
v  1.5000 1.5000 -1.5000
v  -1.5000 1.5000 -1.5000
# 8 vertices

vn -0.5774 -0.5774 0.5774
vn -0.5774 -0.5774 -0.5774
vn 0.5774 -0.5774 -0.5774
vn 0.5774 -0.5774 0.5774
vn -0.5774 0.5774 0.5774
vn 0.5774 0.5774 0.5774
vn 0.5774 0.5774 -0.5774
vn -0.5774 0.5774 -0.5774
# 8 vertex normals

vt 0.5035 0.0064 0.0000
vt 0.7463 0.0058 0.0000
vt 0.7466 0.3278 0.0000
vt 0.5038 0.3284 0.0000
vt 0.5042 0.9928 0.0000
vt 0.5039 0.6699 0.0000
vt 0.7458 0.6693 0.0000
vt 0.7461 0.9922 0.0000
vt 0.2537 0.3379 0.0000
vt 0.4954 0.3379 0.0000
vt 0.4954 0.6598 0.0000
vt 0.2537 0.6598 0.0000
vt 0.5038 0.3378 0.0000
vt 0.7463 0.3377 0.0000
vt 0.7464 0.6602 0.0000
vt 0.5039 0.6603 0.0000
vt 0.7537 0.3377 0.0000
vt 0.9965 0.3377 0.0000
vt 0.9965 0.6603 0.0000
vt 0.7537 0.6603 0.0000
vt 0.0041 0.3383 0.0000
vt 0.2460 0.3383 0.0000
vt 0.2460 0.6595 0.0000
vt 0.0041 0.6595 0.0000
# 24 texture coords

o Dado
g Dado
usemtl Material__27
s 2
f 1/1/1 2/2/2 3/3/3 4/4/4 
s 4
f 5/5/5 6/6/6 7/7/7 8/8/8 
s 8
f 1/9/1 4/10/4 6/11/6 5/12/5 
s 16
f 4/13/4 3/14/3 7/15/7 6/16/6 
s 32
f 3/17/3 2/18/2 8/19/8 7/20/7 
s 64
f 2/21/2 1/22/1 5/23/5 8/24/8 
# 6 polygons

