# 3ds Max Wavefront OBJ Exporter v0.99 - (c)2007 guruware
# File Created: 29.03.2025 18:41:35

mtllib Llanta.mtl

#
# object LlantaDerechaDelantera
#

v  0.0000 -3.7376 -1.2973
v  1.1807 -3.5469 -1.2973
v  1.1807 -3.5469 1.2973
v  0.0000 -3.7376 1.2973
v  -1.1807 -3.5469 -1.2973
v  -1.1807 -3.5469 1.2973
v  -2.2066 -3.0159 -1.2973
v  -2.2066 -3.0159 1.2973
v  -3.0159 -2.2066 -1.2973
v  -3.0159 -2.2066 1.2973
v  -3.5469 -1.1807 -1.2972
v  -3.5469 -1.1807 1.2973
v  -3.7376 0.0000 -1.2972
v  -3.7376 0.0000 1.2973
v  -3.5469 1.1807 -1.2972
v  -3.5469 1.1807 1.2973
v  -3.0159 2.2066 -1.2972
v  -3.0159 2.2066 1.2973
v  -2.2066 3.0159 -1.2972
v  -2.2066 3.0159 1.2973
v  -1.1807 3.5469 -1.2973
v  -1.1807 3.5469 1.2973
v  0.0000 3.7376 -1.2973
v  0.0000 3.7376 1.2973
v  1.1807 3.5469 -1.2973
v  1.1807 3.5469 1.2973
v  2.2066 3.0159 -1.2973
v  2.2066 3.0159 1.2973
v  3.0159 2.2066 -1.2973
v  3.0159 2.2066 1.2973
v  3.5469 1.1807 -1.2973
v  3.5469 1.1807 1.2973
v  3.7376 0.0000 -1.2973
v  3.7376 0.0000 1.2973
v  3.5469 -1.1807 -1.2973
v  3.5469 -1.1807 1.2973
v  3.0159 -2.2066 -1.2973
v  3.0159 -2.2066 1.2973
v  2.2066 -3.0159 -1.2973
v  2.2066 -3.0159 1.2973
# 40 vertices

vn -0.0000 -0.7397 -0.6729
vn 0.2318 -0.7022 -0.6732
vn 0.2318 -0.7022 0.6732
vn 0.0000 -0.7397 0.6729
vn -0.2318 -0.7022 -0.6732
vn -0.2318 -0.7022 0.6732
vn -0.4360 -0.5961 -0.6742
vn -0.4360 -0.5961 0.6742
vn -0.5961 -0.4360 -0.6742
vn -0.5961 -0.4360 0.6742
vn -0.7022 -0.2318 -0.6732
vn -0.7022 -0.2318 0.6732
vn -0.7397 -0.0000 -0.6729
vn -0.7397 0.0000 0.6729
vn -0.7022 0.2318 -0.6732
vn -0.7022 0.2318 0.6732
vn -0.5962 0.4360 -0.6741
vn -0.5961 0.4360 0.6742
vn -0.4360 0.5961 -0.6742
vn -0.4360 0.5962 0.6741
vn -0.2318 0.7022 -0.6732
vn -0.2318 0.7022 0.6732
vn 0.0000 0.7396 -0.6730
vn -0.0000 0.7397 0.6729
vn 0.2318 0.7022 -0.6732
vn 0.2318 0.7022 0.6732
vn 0.4360 0.5962 -0.6741
vn 0.4360 0.5961 0.6742
vn 0.5961 0.4360 -0.6742
vn 0.5961 0.4360 0.6742
vn 0.7022 0.2318 -0.6732
vn 0.7022 0.2318 0.6732
vn 0.7397 -0.0000 -0.6729
vn 0.7397 0.0000 0.6729
vn 0.7022 -0.2318 -0.6732
vn 0.7022 -0.2318 0.6732
vn 0.5961 -0.4360 -0.6742
vn 0.5961 -0.4360 0.6742
vn 0.4360 -0.5961 -0.6742
vn 0.4360 -0.5961 0.6742
# 40 vertex normals

vt 0.8724 0.5106 -0.2933
vt 0.8959 0.5106 -0.2933
vt 0.8959 0.4009 -0.2933
vt 0.8724 0.4009 0.2933
vt 0.8489 0.5106 -0.2933
vt 0.8489 0.4009 -0.2933
vt 0.8262 0.5106 -0.2933
vt 0.8262 0.4009 -0.2933
vt 0.8037 0.5106 -0.2933
vt 0.8037 0.4009 -0.2933
vt 0.7810 0.5106 -0.2933
vt 0.7810 0.4009 -0.2933
vt 0.7575 0.5106 -0.2933
vt 0.7575 0.4009 -0.2933
vt 0.7340 0.5106 -0.2933
vt 0.7340 0.4009 -0.2933
vt 0.7113 0.5106 -0.2933
vt 0.7113 0.4009 -0.2933
vt 0.6889 0.5106 -0.2933
vt 0.6889 0.4009 -0.2933
vt 0.6662 0.5106 -0.2933
vt 0.6662 0.4009 -0.2933
vt 0.6427 0.5106 -0.2933
vt 0.6427 0.4009 0.2933
vt 0.6192 0.5106 -0.2933
vt 0.6192 0.4009 -0.2933
vt 0.5965 0.5106 -0.2933
vt 0.5965 0.4009 -0.2933
vt 0.5740 0.5106 -0.2933
vt 0.5740 0.4009 -0.2933
vt 0.5513 0.5106 -0.2933
vt 0.5513 0.4009 -0.2933
vt 0.5278 0.5106 -0.2933
vt 0.5278 0.4009 -0.2933
vt 0.9638 0.5106 -0.2933
vt 0.9873 0.5106 -0.2933
vt 0.9873 0.4009 -0.2933
vt 0.9638 0.4009 -0.2933
vt 0.9411 0.5106 -0.2933
vt 0.9411 0.4009 -0.2933
vt 0.9186 0.5106 -0.2933
vt 0.9186 0.4009 -0.2933
# 42 texture coords

o LlantaDerechaDelantera
g LlantaDerechaDelantera
usemtl Material__14
s 1
f 1/1/1 2/2/2 3/3/3 4/4/4 
f 5/5/5 1/1/1 4/4/4 6/6/6 
f 7/7/7 5/5/5 6/6/6 8/8/8 
f 9/9/9 7/7/7 8/8/8 10/10/10 
f 11/11/11 9/9/9 10/10/10 12/12/12 
f 13/13/13 11/11/11 12/12/12 14/14/14 
f 15/15/15 13/13/13 14/14/14 16/16/16 
f 17/17/17 15/15/15 16/16/16 18/18/18 
f 19/19/19 17/17/17 18/18/18 20/20/20 
f 21/21/21 19/19/19 20/20/20 22/22/22 
f 23/23/23 21/21/21 22/22/22 24/24/24 
f 25/25/25 23/23/23 24/24/24 26/26/26 
f 27/27/27 25/25/25 26/26/26 28/28/28 
f 29/29/29 27/27/27 28/28/28 30/30/30 
f 31/31/31 29/29/29 30/30/30 32/32/32 
f 33/33/33 31/31/31 32/32/32 34/34/34 
f 35/35/35 33/36/33 34/37/34 36/38/36 
f 37/39/37 35/35/35 36/38/36 38/40/38 
f 39/41/39 37/39/37 38/40/38 40/42/40 
f 2/2/2 39/41/39 40/42/40 3/3/3 
# 20 polygons

#
# object LDD_Rin
#

v  1.1807 -3.5469 1.2973
v  0.0000 0.0000 1.2973
v  0.0000 -3.7376 1.2973
v  -1.1806 -3.5469 1.2973
v  -2.2066 -3.0159 1.2973
v  -3.0159 -2.2066 1.2973
v  -3.5469 -1.1807 1.2973
v  -3.7376 0.0000 1.2973
v  -3.5469 1.1807 1.2973
v  -3.0159 2.2066 1.2973
v  -2.2066 3.0159 1.2973
v  -1.1806 3.5469 1.2973
v  0.0000 3.7376 1.2973
v  1.1807 3.5469 1.2973
v  2.2066 3.0159 1.2973
v  3.0159 2.2066 1.2973
v  3.5469 1.1807 1.2973
v  3.7376 0.0000 1.2973
v  3.5469 -1.1807 1.2973
v  3.0159 -2.2066 1.2973
v  2.2066 -3.0159 1.2973
v  0.0000 0.0000 -1.2973
v  1.1807 -3.5469 -1.2973
v  0.0000 -3.7376 -1.2973
v  -1.1806 -3.5469 -1.2973
v  -2.2066 -3.0159 -1.2973
v  -3.0159 -2.2066 -1.2973
v  -3.5469 -1.1807 -1.2972
v  -3.7376 0.0000 -1.2972
v  -3.5469 1.1807 -1.2972
v  -3.0159 2.2066 -1.2972
v  -2.2066 3.0159 -1.2972
v  -1.1806 3.5469 -1.2973
v  0.0000 3.7376 -1.2973
v  1.1807 3.5469 -1.2973
v  2.2066 3.0159 -1.2973
v  3.0159 2.2066 -1.2973
v  3.5469 1.1807 -1.2973
v  3.7376 0.0000 -1.2973
v  3.5469 -1.1807 -1.2973
v  3.0159 -2.2066 -1.2973
v  2.2066 -3.0159 -1.2973
# 42 vertices

vn 0.2318 -0.7022 0.6732
vn 0.0000 -0.0000 1.0000
vn 0.0000 -0.7397 0.6729
vn -0.2318 -0.7022 0.6732
vn -0.4360 -0.5961 0.6742
vn -0.5961 -0.4360 0.6742
vn -0.7022 -0.2318 0.6732
vn -0.7397 0.0000 0.6729
vn -0.7022 0.2318 0.6732
vn -0.5961 0.4360 0.6742
vn -0.4360 0.5962 0.6741
vn -0.2318 0.7022 0.6732
vn -0.0000 0.7397 0.6729
vn 0.2318 0.7022 0.6732
vn 0.4360 0.5961 0.6742
vn 0.5961 0.4360 0.6742
vn 0.7022 0.2318 0.6732
vn 0.7397 0.0000 0.6729
vn 0.7022 -0.2318 0.6732
vn 0.5961 -0.4360 0.6742
vn 0.4360 -0.5961 0.6742
vn -0.0000 0.0000 -1.0000
vn 0.2318 -0.7022 -0.6732
vn -0.0000 -0.7397 -0.6729
vn -0.2318 -0.7022 -0.6732
vn -0.4360 -0.5961 -0.6742
vn -0.5961 -0.4360 -0.6742
vn -0.7022 -0.2318 -0.6732
vn -0.7397 -0.0000 -0.6729
vn -0.7022 0.2318 -0.6732
vn -0.5962 0.4360 -0.6741
vn -0.4360 0.5961 -0.6742
vn -0.2318 0.7022 -0.6732
vn 0.0000 0.7396 -0.6730
vn 0.2318 0.7022 -0.6732
vn 0.4360 0.5962 -0.6741
vn 0.5961 0.4360 -0.6742
vn 0.7022 0.2318 -0.6732
vn 0.7397 -0.0000 -0.6729
vn 0.7022 -0.2318 -0.6732
vn 0.5961 -0.4360 -0.6742
vn 0.4360 -0.5961 -0.6742
# 42 vertex normals

vt 0.3998 0.1002 0.5865
vt 0.4975 0.4880 0.5865
vt 0.4975 0.0791 0.5865
vt 0.5951 0.1002 0.5865
vt 0.6798 0.1582 0.5865
vt 0.7468 0.2468 0.5865
vt 0.7906 0.3589 0.5865
vt 0.8065 0.4880 0.5865
vt 0.7906 0.6174 0.5865
vt 0.7468 0.7296 0.5865
vt 0.6798 0.8182 0.5865
vt 0.5951 0.8762 0.5865
vt 0.4975 0.8970 0.5865
vt 0.3998 0.8762 0.5865
vt 0.3150 0.8182 0.5865
vt 0.2481 0.7296 0.5865
vt 0.2043 0.6174 0.5865
vt 0.1885 0.4880 0.5865
vt 0.2043 0.3589 0.5865
vt 0.2481 0.2468 0.5865
vt 0.3150 0.1582 0.5865
vt 0.5087 0.4985 -0.4135
# 22 texture coords

o LDD_Rin
g LDD_Rin
usemtl Material__16
s off
f 41/43/41 42/44/42 43/45/43 
f 43/45/43 42/44/42 44/46/44 
f 44/46/44 42/44/42 45/47/45 
f 45/47/45 42/44/42 46/48/46 
f 46/48/46 42/44/42 47/49/47 
f 47/49/47 42/44/42 48/50/48 
f 48/50/48 42/44/42 49/51/49 
f 49/51/49 42/44/42 50/52/50 
f 50/52/50 42/44/42 51/53/51 
f 51/53/51 42/44/42 52/54/52 
f 52/54/52 42/44/42 53/55/53 
f 53/55/53 42/44/42 54/56/54 
f 54/56/54 42/44/42 55/57/55 
f 55/57/55 42/44/42 56/58/56 
f 56/58/56 42/44/42 57/59/57 
f 57/59/57 42/44/42 58/60/58 
f 58/60/58 42/44/42 59/61/59 
f 59/61/59 42/44/42 60/62/60 
f 60/62/60 42/44/42 61/63/61 
f 61/63/61 42/44/42 41/43/41 
f 62/64/62 63/64/63 64/64/64 
f 62/64/62 64/64/64 65/64/65 
f 62/64/62 65/64/65 66/64/66 
f 62/64/62 66/64/66 67/64/67 
f 62/64/62 67/64/67 68/64/68 
f 62/64/62 68/64/68 69/64/69 
f 62/64/62 69/64/69 70/64/70 
f 62/64/62 70/64/70 71/64/71 
f 62/64/62 71/64/71 72/64/72 
f 62/64/62 72/64/72 73/64/73 
f 62/64/62 73/64/73 74/64/74 
f 62/64/62 74/64/74 75/64/75 
f 62/64/62 75/64/75 76/64/76 
f 62/64/62 76/64/76 77/64/77 
f 62/64/62 77/64/77 78/64/78 
f 62/64/62 78/64/78 79/64/79 
f 62/64/62 79/64/79 80/64/80 
f 62/64/62 80/64/80 81/64/81 
f 62/64/62 81/64/81 82/64/82 
f 62/64/62 82/64/82 63/64/63 
# 0 polygons - 40 triangles

