# 3ds Max Wavefront OBJ Exporter v0.99 - (c)2007 guruware
# File Created: 21.03.2025 23:55:31

mtllib LlantaDelanteraIzquierda.mtl

#
# object LlantaDerechaDelantera
#

v  1.1807 -3.5469 1.2973
v  0.0000 0.0000 1.2973
v  0.0000 -3.7376 1.2973
v  -1.1807 -3.5469 1.2973
v  -2.2066 -3.0159 1.2973
v  -3.0159 -2.2066 1.2973
v  -3.5469 -1.1807 1.2973
v  -3.7376 0.0000 1.2973
v  -3.5469 1.1807 1.2973
v  -3.0159 2.2066 1.2973
v  -2.2066 3.0159 1.2973
v  -1.1807 3.5469 1.2973
v  0.0000 3.7376 1.2973
v  1.1807 3.5469 1.2973
v  2.2066 3.0159 1.2973
v  3.0159 2.2066 1.2973
v  3.5469 1.1807 1.2973
v  3.7376 0.0000 1.2973
v  3.5469 -1.1807 1.2973
v  3.0159 -2.2066 1.2973
v  2.2066 -3.0159 1.2973
v  0.0000 0.0000 -1.2973
v  1.1807 -3.5469 -1.2973
v  0.0000 -3.7376 -1.2973
v  -1.1807 -3.5469 -1.2973
v  -2.2066 -3.0159 -1.2973
v  -3.0159 -2.2066 -1.2973
v  -3.5469 -1.1807 -1.2972
v  -3.7376 0.0000 -1.2972
v  -3.5469 1.1807 -1.2972
v  -3.0159 2.2066 -1.2972
v  -2.2066 3.0159 -1.2972
v  -1.1807 3.5469 -1.2973
v  0.0000 3.7376 -1.2973
v  1.1807 3.5469 -1.2973
v  2.2066 3.0159 -1.2973
v  3.0159 2.2066 -1.2973
v  3.5469 1.1807 -1.2973
v  3.7376 0.0000 -1.2973
v  3.5469 -1.1807 -1.2973
v  3.0159 -2.2066 -1.2973
v  2.2066 -3.0159 -1.2973
# 42 vertices

vn 0.2318 -0.7022 0.6732
vn 0.0000 -0.0000 1.0000
vn 0.0000 -0.7397 0.6729
vn -0.2318 -0.7022 0.6732
vn -0.4360 -0.5961 0.6742
vn -0.5961 -0.4360 0.6742
vn -0.7022 -0.2318 0.6732
vn -0.7397 0.0000 0.6729
vn -0.7022 0.2318 0.6732
vn -0.5961 0.4360 0.6742
vn -0.4360 0.5962 0.6741
vn -0.2318 0.7022 0.6732
vn -0.0000 0.7397 0.6729
vn 0.2318 0.7022 0.6732
vn 0.4360 0.5961 0.6742
vn 0.5961 0.4360 0.6742
vn 0.7022 0.2318 0.6732
vn 0.7397 0.0000 0.6729
vn 0.7022 -0.2318 0.6732
vn 0.5961 -0.4360 0.6742
vn 0.4360 -0.5961 0.6742
vn -0.0000 0.0000 -1.0000
vn 0.2318 -0.7022 -0.6732
vn -0.0000 -0.7397 -0.6729
vn -0.2318 -0.7022 -0.6732
vn -0.4360 -0.5961 -0.6742
vn -0.5961 -0.4360 -0.6742
vn -0.7022 -0.2318 -0.6732
vn -0.7397 -0.0000 -0.6729
vn -0.7022 0.2318 -0.6732
vn -0.5962 0.4360 -0.6741
vn -0.4360 0.5961 -0.6742
vn -0.2318 0.7022 -0.6732
vn 0.0000 0.7396 -0.6730
vn 0.2318 0.7022 -0.6732
vn 0.4360 0.5962 -0.6741
vn 0.5961 0.4360 -0.6742
vn 0.7022 0.2318 -0.6732
vn 0.7397 -0.0000 -0.6729
vn 0.7022 -0.2318 -0.6732
vn 0.5961 -0.4360 -0.6742
vn 0.4360 -0.5961 -0.6742
# 42 vertex normals

vt 0.7910 0.0199 0.5865
vt 0.8383 0.1617 0.5865
vt 0.8383 0.0122 0.5865
vt 0.8855 0.0199 0.5865
vt 0.9265 0.0411 0.5865
vt 0.9589 0.0735 0.5865
vt 0.9801 0.1145 0.5865
vt 0.9878 0.1617 0.5865
vt 0.9801 0.2090 0.5865
vt 0.9589 0.2500 0.5865
vt 0.9265 0.2824 0.5865
vt 0.8855 0.3036 0.5865
vt 0.8383 0.3112 0.5865
vt 0.7910 0.3036 0.5865
vt 0.7500 0.2824 0.5865
vt 0.7176 0.2500 0.5865
vt 0.6964 0.2090 0.5865
vt 0.6888 0.1617 0.5865
vt 0.6964 0.1145 0.5865
vt 0.7176 0.0735 0.5865
vt 0.7500 0.0411 0.5865
vt 0.7964 0.8115 -0.4135
vt 0.7808 0.7866 -0.4135
vt 0.7964 0.7852 -0.4135
vt 0.8120 0.7866 -0.4135
vt 0.8256 0.7903 -0.4135
vt 0.8363 0.7960 -0.4135
vt 0.8433 0.8032 -0.4135
vt 0.8458 0.8115 -0.4135
vt 0.8433 0.8197 -0.4135
vt 0.8363 0.8269 -0.4135
vt 0.8256 0.8326 -0.4135
vt 0.8120 0.8363 -0.4135
vt 0.7964 0.8377 -0.4135
vt 0.7808 0.8363 -0.4135
vt 0.7673 0.8326 -0.4135
vt 0.7566 0.8269 -0.4135
vt 0.7496 0.8197 -0.4135
vt 0.7471 0.8115 -0.4135
vt 0.7496 0.8032 -0.4135
vt 0.7566 0.7960 -0.4135
vt 0.7673 0.7903 -0.4135
vt 0.8724 0.5106 -0.2933
vt 0.8959 0.5106 -0.2933
vt 0.8959 0.4009 -0.2933
vt 0.8724 0.4009 0.2933
vt 0.8489 0.5106 -0.2933
vt 0.8489 0.4009 -0.2933
vt 0.8262 0.5106 -0.2933
vt 0.8262 0.4009 -0.2933
vt 0.8037 0.5106 -0.2933
vt 0.8037 0.4009 -0.2933
vt 0.7810 0.5106 -0.2933
vt 0.7810 0.4009 -0.2933
vt 0.7575 0.5106 -0.2933
vt 0.7575 0.4009 -0.2933
vt 0.7340 0.5106 -0.2933
vt 0.7340 0.4009 -0.2933
vt 0.7113 0.5106 -0.2933
vt 0.7113 0.4009 -0.2933
vt 0.6889 0.5106 -0.2933
vt 0.6889 0.4009 -0.2933
vt 0.6662 0.5106 -0.2933
vt 0.6662 0.4009 -0.2933
vt 0.6427 0.5106 -0.2933
vt 0.6427 0.4009 0.2933
vt 0.6192 0.5106 -0.2933
vt 0.6192 0.4009 -0.2933
vt 0.5965 0.5106 -0.2933
vt 0.5965 0.4009 -0.2933
vt 0.5740 0.5106 -0.2933
vt 0.5740 0.4009 -0.2933
vt 0.5513 0.5106 -0.2933
vt 0.5513 0.4009 -0.2933
vt 0.5278 0.5106 -0.2933
vt 0.5278 0.4009 -0.2933
vt 0.9638 0.5106 -0.2933
vt 0.9873 0.5106 -0.2933
vt 0.9873 0.4009 -0.2933
vt 0.9638 0.4009 -0.2933
vt 0.9411 0.5106 -0.2933
vt 0.9411 0.4009 -0.2933
vt 0.9186 0.5106 -0.2933
vt 0.9186 0.4009 -0.2933
# 84 texture coords

o LlantaDerechaDelantera
g LlantaDerechaDelantera
usemtl 767c8b7b_1260_4325_b83f_f635800d9059_Standard00E280
s off
f 1/1/1 2/2/2 3/3/3 
f 3/3/3 2/2/2 4/4/4 
f 4/4/4 2/2/2 5/5/5 
f 5/5/5 2/2/2 6/6/6 
f 6/6/6 2/2/2 7/7/7 
f 7/7/7 2/2/2 8/8/8 
f 8/8/8 2/2/2 9/9/9 
f 9/9/9 2/2/2 10/10/10 
f 10/10/10 2/2/2 11/11/11 
f 11/11/11 2/2/2 12/12/12 
f 12/12/12 2/2/2 13/13/13 
f 13/13/13 2/2/2 14/14/14 
f 14/14/14 2/2/2 15/15/15 
f 15/15/15 2/2/2 16/16/16 
f 16/16/16 2/2/2 17/17/17 
f 17/17/17 2/2/2 18/18/18 
f 18/18/18 2/2/2 19/19/19 
f 19/19/19 2/2/2 20/20/20 
f 20/20/20 2/2/2 21/21/21 
f 21/21/21 2/2/2 1/1/1 
f 22/22/22 23/23/23 24/24/24 
f 22/22/22 24/24/24 25/25/25 
f 22/22/22 25/25/25 26/26/26 
f 22/22/22 26/26/26 27/27/27 
f 22/22/22 27/27/27 28/28/28 
f 22/22/22 28/28/28 29/29/29 
f 22/22/22 29/29/29 30/30/30 
f 22/22/22 30/30/30 31/31/31 
f 22/22/22 31/31/31 32/32/32 
f 22/22/22 32/32/32 33/33/33 
f 22/22/22 33/33/33 34/34/34 
f 22/22/22 34/34/34 35/35/35 
f 22/22/22 35/35/35 36/36/36 
f 22/22/22 36/36/36 37/37/37 
f 22/22/22 37/37/37 38/38/38 
f 22/22/22 38/38/38 39/39/39 
f 22/22/22 39/39/39 40/40/40 
f 22/22/22 40/40/40 41/41/41 
f 22/22/22 41/41/41 42/42/42 
f 22/22/22 42/42/42 23/23/23 
s 1
f 24/43/24 23/44/23 1/45/1 3/46/3 
f 25/47/25 24/43/24 3/46/3 4/48/4 
f 26/49/26 25/47/25 4/48/4 5/50/5 
f 27/51/27 26/49/26 5/50/5 6/52/6 
f 28/53/28 27/51/27 6/52/6 7/54/7 
f 29/55/29 28/53/28 7/54/7 8/56/8 
f 30/57/30 29/55/29 8/56/8 9/58/9 
f 31/59/31 30/57/30 9/58/9 10/60/10 
f 32/61/32 31/59/31 10/60/10 11/62/11 
f 33/63/33 32/61/32 11/62/11 12/64/12 
f 34/65/34 33/63/33 12/64/12 13/66/13 
f 35/67/35 34/65/34 13/66/13 14/68/14 
f 36/69/36 35/67/35 14/68/14 15/70/15 
f 37/71/37 36/69/36 15/70/15 16/72/16 
f 38/73/38 37/71/37 16/72/16 17/74/17 
f 39/75/39 38/73/38 17/74/17 18/76/18 
f 40/77/40 39/78/39 18/79/18 19/80/19 
f 41/81/41 40/77/40 19/80/19 20/82/20 
f 42/83/42 41/81/41 20/82/20 21/84/21 
f 23/44/23 42/83/42 21/84/21 1/45/1 
# 20 polygons - 40 triangles

