# 3ds Max Wavefront OBJ Exporter v0.99 - (c)2007 guruware
# File Created: 18.04.2025 13:09:59

mtllib arco.mtl

#
# object obj_0
#

v  2.4575 8.5098 3.3600
v  6.5820 10.2896 3.3600
v  2.2438 8.7240 3.3600
v  -3.1521 7.4954 3.3600
v  -6.6801 10.2896 3.3600
v  -3.2293 7.2148 3.3600
v  -3.0448 7.7677 3.3600
v  6.5820 11.1737 -3.1237
v  6.5820 12.6812 -3.1237
v  6.5820 12.6812 3.3600
v  6.5820 11.1737 3.3600
v  -2.9086 8.0294 3.3600
v  -2.7451 8.2775 3.3600
v  -2.5556 8.5098 -3.1237
v  -2.7451 8.2775 -3.1237
v  -6.6801 10.2896 -3.1237
v  2.6470 8.2775 3.3600
v  -2.5556 8.5098 3.3600
v  2.9467 7.7677 3.3600
v  2.8106 8.0294 3.3600
v  -2.3419 8.7240 3.3600
v  3.1312 7.2148 3.3600
v  3.0540 7.4954 3.3600
v  -2.1061 8.9183 3.3600
v  3.1934 6.6398 3.3600
v  3.1778 6.9286 3.3600
v  -1.8506 9.0907 3.3600
v  -0.6818 9.5307 3.3600
v  -0.9904 9.4605 3.3600
v  -1.2901 9.3630 3.3600
v  -1.5777 9.2395 3.3600
v  -0.3670 9.5731 3.3600
v  -0.0490 9.5873 3.3600
v  0.2687 9.5731 3.3600
v  -6.6801 11.1737 3.3600
v  1.1917 9.3630 -3.1237
v  1.1917 9.3630 3.3600
v  0.8923 9.4605 3.3600
v  0.8923 9.4605 -3.1237
v  3.1934 0.0085 3.3600
v  6.5820 0.0085 3.3600
v  1.4794 9.2395 3.3600
v  1.4794 9.2395 -3.1237
v  0.5834 9.5307 3.3600
v  -6.6801 12.6812 3.3600
v  2.0081 8.9183 -3.1237
v  2.0081 8.9183 3.3600
v  1.7526 9.0907 3.3600
v  1.7526 9.0907 -3.1237
v  2.2438 8.7240 -3.1237
v  -3.2918 6.6398 3.3600
v  -3.2762 6.9286 3.3600
v  -6.6801 0.0085 3.3600
v  -3.2918 0.0085 3.3600
v  2.4575 8.5098 -3.1237
v  2.6470 8.2775 -3.1237
v  3.1312 7.2148 -3.1237
v  3.0540 7.4954 -3.1237
v  6.5820 10.2896 -3.1237
v  2.8106 8.0294 -3.1237
v  2.9467 7.7677 -3.1237
v  -2.9086 8.0294 -3.1237
v  -3.0448 7.7677 -3.1237
v  -3.1521 7.4954 -3.1237
v  3.1778 6.9286 -3.1237
v  0.2687 9.5731 -3.1237
v  -0.0490 9.5873 -3.1237
v  -0.3670 9.5731 -3.1237
v  -6.6801 11.1737 -3.1237
v  6.5820 0.0085 -3.1237
v  3.1934 6.6398 -3.1237
v  3.1934 0.0085 -3.1237
v  -6.6801 12.6812 -3.1237
v  -2.1061 8.9183 -3.1237
v  -2.3419 8.7240 -3.1237
v  -3.2293 7.2148 -3.1237
v  -3.2762 6.9286 -3.1237
v  -3.2918 6.6398 -3.1237
v  -3.2918 0.0085 -3.1237
v  -6.6801 0.0085 -3.1237
v  -1.8506 9.0907 -3.1237
v  -1.5777 9.2395 -3.1237
v  -1.2901 9.3630 -3.1237
v  -0.9904 9.4605 -3.1237
v  -0.6818 9.5307 -3.1237
v  0.5834 9.5307 -3.1237
# 86 vertices

vn -0.5163 -0.4660 0.7185
vn 0.7071 0.0000 0.7071
vn -0.4681 -0.5147 0.7183
vn 0.6590 -0.2198 0.7193
vn -0.7071 0.0000 0.7071
vn 0.6787 -0.1485 0.7193
vn 0.6324 -0.2881 0.7190
vn 0.7071 0.0000 -0.7071
vn 0.5774 0.5774 -0.5774
vn 0.5774 0.5774 0.5774
vn 0.5993 -0.3521 0.7189
vn 0.5603 -0.4116 0.7187
vn 0.5163 -0.4660 -0.7185
vn 0.5603 -0.4116 -0.7187
vn -0.7071 0.0000 -0.7071
vn -0.5603 -0.4116 0.7187
vn 0.5163 -0.4660 0.7185
vn -0.6324 -0.2881 0.7190
vn -0.5993 -0.3522 0.7189
vn 0.4681 -0.5148 0.7183
vn -0.6786 -0.1481 0.7194
vn -0.6590 -0.2198 0.7193
vn 0.4164 -0.5577 0.7180
vn -0.7007 -0.0189 0.7132
vn -0.6906 -0.0746 0.7194
vn 0.3618 -0.5948 0.7179
vn 0.1239 -0.6856 0.7173
vn 0.1852 -0.6715 0.7175
vn 0.2454 -0.6519 0.7175
vn 0.3043 -0.6262 0.7178
vn 0.0621 -0.6940 0.7173
vn -0.0000 -0.6968 0.7173
vn -0.0621 -0.6940 0.7173
vn -0.2455 -0.6519 -0.7174
vn -0.2455 -0.6519 0.7174
vn -0.1852 -0.6714 0.7176
vn -0.1852 -0.6714 -0.7176
vn -0.5774 -0.5774 0.5774
vn 0.5774 -0.5774 0.5774
vn -0.3042 -0.6263 0.7178
vn -0.3042 -0.6263 -0.7178
vn -0.1238 -0.6857 0.7173
vn -0.5774 0.5774 0.5774
vn -0.4164 -0.5577 -0.7180
vn -0.4164 -0.5577 0.7180
vn -0.3616 -0.5948 0.7179
vn -0.3616 -0.5948 -0.7179
vn -0.4681 -0.5148 -0.7183
vn 0.7007 -0.0189 0.7132
vn 0.6904 -0.0750 0.7195
vn -0.5163 -0.4660 -0.7185
vn -0.5603 -0.4116 -0.7187
vn -0.6786 -0.1482 -0.7194
vn -0.6590 -0.2198 -0.7193
vn -0.5993 -0.3522 -0.7189
vn -0.6324 -0.2881 -0.7190
vn 0.5993 -0.3522 -0.7189
vn 0.6324 -0.2881 -0.7191
vn 0.6590 -0.2198 -0.7193
vn -0.6906 -0.0746 -0.7194
vn -0.0621 -0.6940 -0.7173
vn -0.0000 -0.6968 -0.7173
vn 0.0621 -0.6940 -0.7173
vn 0.5774 -0.5774 -0.5774
vn -0.7006 -0.0189 -0.7133
vn -0.5774 -0.5774 -0.5774
vn -0.5774 0.5774 -0.5774
vn 0.4164 -0.5577 -0.7180
vn 0.4681 -0.5148 -0.7183
vn 0.6786 -0.1485 -0.7193
vn 0.6904 -0.0750 -0.7195
vn 0.7007 -0.0189 -0.7132
vn 0.3617 -0.5948 -0.7179
vn 0.3043 -0.6262 -0.7178
vn 0.2454 -0.6519 -0.7175
vn 0.1852 -0.6715 -0.7175
vn 0.1239 -0.6856 -0.7173
vn -0.1238 -0.6857 -0.7173
# 78 vertex normals

vt 0.1082 0.0580 0.0000
# 1 texture coords

o obj_0
g obj_0
usemtl SM_Arco_color_15277357
s off
f 1/1/1 2/1/2 3/1/3 
f 4/1/4 5/1/5 6/1/6 
f 7/1/7 5/1/5 4/1/4 
f 8/1/8 9/1/9 10/1/10 
f 8/1/8 10/1/10 11/1/2 
f 12/1/11 5/1/5 7/1/7 
f 13/1/12 5/1/5 12/1/11 
f 14/1/13 15/1/14 16/1/15 
f 17/1/16 2/1/2 1/1/1 
f 18/1/17 5/1/5 13/1/12 
f 19/1/18 2/1/2 20/1/19 
f 21/1/20 5/1/5 18/1/17 
f 22/1/21 2/1/2 23/1/22 
f 24/1/23 5/1/5 21/1/20 
f 25/1/24 2/1/2 26/1/25 
f 24/1/23 27/1/26 5/1/5 
f 28/1/27 5/1/5 29/1/28 
f 30/1/29 5/1/5 31/1/30 
f 27/1/26 31/1/30 5/1/5 
f 29/1/28 5/1/5 30/1/29 
f 32/1/31 5/1/5 28/1/27 
f 33/1/32 5/1/5 32/1/31 
f 34/1/33 2/1/2 33/1/32 
f 17/1/16 20/1/19 2/1/2 
f 19/1/18 23/1/22 2/1/2 
f 26/1/25 2/1/2 22/1/21 
f 5/1/5 33/1/32 2/1/2 
f 35/1/5 11/1/2 10/1/10 
f 36/1/34 37/1/35 38/1/36 
f 36/1/34 38/1/36 39/1/37 
f 40/1/38 41/1/39 25/1/24 
f 2/1/2 25/1/24 41/1/39 
f 37/1/35 36/1/34 42/1/40 
f 43/1/41 42/1/40 36/1/34 
f 44/1/42 38/1/36 2/1/2 
f 34/1/33 44/1/42 2/1/2 
f 45/1/43 35/1/5 10/1/10 
f 46/1/44 47/1/45 48/1/46 
f 38/1/36 37/1/35 2/1/2 
f 49/1/47 48/1/46 42/1/40 
f 49/1/47 42/1/40 43/1/41 
f 50/1/48 3/1/3 47/1/45 
f 50/1/48 47/1/45 46/1/44 
f 51/1/49 52/1/50 5/1/5 
f 53/1/38 51/1/49 5/1/5 
f 54/1/39 51/1/49 53/1/38 
f 48/1/46 49/1/47 46/1/44 
f 55/1/51 1/1/1 50/1/48 
f 3/1/3 50/1/48 1/1/1 
f 1/1/1 55/1/51 17/1/16 
f 48/1/46 2/1/2 42/1/40 
f 47/1/45 2/1/2 48/1/46 
f 3/1/3 2/1/2 47/1/45 
f 37/1/35 42/1/40 2/1/2 
f 56/1/52 17/1/16 55/1/51 
f 57/1/53 58/1/54 59/1/8 
f 19/1/18 58/1/54 23/1/22 
f 17/1/16 56/1/52 20/1/19 
f 60/1/55 20/1/19 56/1/52 
f 23/1/22 58/1/54 22/1/21 
f 61/1/56 19/1/18 20/1/19 
f 61/1/56 20/1/19 60/1/55 
f 62/1/57 63/1/58 16/1/15 
f 64/1/59 16/1/15 63/1/58 
f 19/1/18 61/1/56 58/1/54 
f 15/1/14 62/1/57 16/1/15 
f 65/1/60 57/1/53 59/1/8 
f 56/1/52 55/1/51 59/1/8 
f 50/1/48 46/1/44 59/1/8 
f 46/1/44 49/1/47 59/1/8 
f 59/1/8 66/1/61 67/1/62 
f 68/1/63 16/1/15 67/1/62 
f 57/1/53 22/1/21 58/1/54 
f 69/1/15 9/1/9 8/1/8 
f 70/1/64 59/1/8 2/1/2 
f 70/1/64 2/1/2 41/1/39 
f 71/1/65 65/1/60 59/1/8 
f 22/1/21 57/1/53 26/1/25 
f 65/1/60 26/1/25 57/1/53 
f 59/1/8 70/1/64 71/1/65 
f 72/1/66 71/1/65 70/1/64 
f 9/1/9 69/1/15 73/1/67 
f 25/1/24 26/1/25 65/1/60 
f 25/1/24 65/1/60 71/1/65 
f 72/1/66 40/1/38 25/1/24 
f 72/1/66 25/1/24 71/1/65 
f 73/1/67 69/1/15 35/1/5 
f 73/1/67 35/1/5 45/1/43 
f 74/1/68 75/1/69 16/1/15 
f 75/1/69 14/1/13 16/1/15 
f 64/1/59 76/1/70 16/1/15 
f 76/1/70 77/1/71 16/1/15 
f 16/1/15 77/1/71 78/1/72 
f 79/1/64 80/1/66 78/1/72 
f 16/1/15 78/1/72 80/1/66 
f 16/1/15 80/1/66 53/1/38 
f 16/1/15 53/1/38 5/1/5 
f 54/1/39 79/1/64 78/1/72 
f 51/1/49 54/1/39 78/1/72 
f 78/1/72 52/1/50 51/1/49 
f 73/1/67 45/1/43 9/1/9 
f 10/1/10 9/1/9 45/1/43 
f 81/1/73 74/1/68 16/1/15 
f 41/1/39 40/1/38 72/1/66 
f 41/1/39 72/1/66 70/1/64 
f 79/1/64 54/1/39 53/1/38 
f 79/1/64 53/1/38 80/1/66 
f 64/1/59 4/1/4 6/1/6 
f 63/1/58 7/1/7 64/1/59 
f 4/1/4 64/1/59 7/1/7 
f 82/1/74 81/1/73 16/1/15 
f 52/1/50 6/1/6 5/1/5 
f 83/1/75 82/1/74 16/1/15 
f 84/1/76 83/1/75 16/1/15 
f 7/1/7 63/1/58 62/1/57 
f 7/1/7 62/1/57 12/1/11 
f 85/1/77 84/1/76 16/1/15 
f 59/1/8 67/1/62 16/1/15 
f 12/1/11 62/1/57 13/1/12 
f 68/1/63 85/1/77 16/1/15 
f 66/1/61 59/1/8 86/1/78 
f 39/1/37 86/1/78 59/1/8 
f 39/1/37 59/1/8 36/1/34 
f 36/1/34 59/1/8 43/1/41 
f 43/1/41 59/1/8 49/1/47 
f 50/1/48 59/1/8 55/1/51 
f 56/1/52 59/1/8 60/1/55 
f 61/1/56 60/1/55 59/1/8 
f 75/1/69 21/1/20 18/1/17 
f 58/1/54 61/1/56 59/1/8 
f 74/1/68 24/1/23 75/1/69 
f 21/1/20 75/1/69 24/1/23 
f 74/1/68 27/1/26 24/1/23 
f 82/1/74 31/1/30 81/1/73 
f 82/1/74 83/1/75 31/1/30 
f 30/1/29 31/1/30 83/1/75 
f 30/1/29 83/1/75 29/1/28 
f 84/1/76 29/1/28 83/1/75 
f 29/1/28 84/1/76 28/1/27 
f 85/1/77 28/1/27 84/1/76 
f 68/1/63 32/1/31 28/1/27 
f 68/1/63 28/1/27 85/1/77 
f 33/1/32 32/1/31 68/1/63 
f 33/1/32 68/1/63 67/1/62 
f 66/1/61 34/1/33 33/1/32 
f 66/1/61 33/1/32 67/1/62 
f 34/1/33 66/1/61 44/1/42 
f 86/1/78 44/1/42 66/1/61 
f 38/1/36 44/1/42 39/1/37 
f 86/1/78 39/1/37 44/1/42 
f 52/1/50 78/1/72 77/1/71 
f 52/1/50 77/1/71 6/1/6 
f 76/1/70 6/1/6 77/1/71 
f 64/1/59 6/1/6 76/1/70 
f 13/1/12 62/1/57 15/1/14 
f 13/1/12 15/1/14 18/1/17 
f 14/1/13 18/1/17 15/1/14 
f 18/1/17 14/1/13 75/1/69 
f 81/1/73 27/1/26 74/1/68 
f 31/1/30 27/1/26 81/1/73 
# 0 polygons - 160 triangles

#
# object letrero
#

v  6.5820 11.9282 3.3600
v  7.1715 11.9282 3.9494
v  6.5820 11.9282 -3.1237
v  7.1715 11.9282 -3.7131
v  7.1715 10.1775 -3.7131
v  7.1715 10.1775 3.9494
v  6.5820 10.1775 3.3600
v  6.5820 10.1775 -3.1237
v  -7.2695 11.9282 -3.7131
v  -6.6801 11.9282 -3.1237
v  -6.6801 10.1775 -3.1237
v  -7.2695 10.1775 -3.7131
v  -7.2695 11.9282 3.9494
v  -6.6801 11.9282 3.3600
v  -6.6801 10.1775 3.3600
v  -7.2695 10.1775 3.9494
# 16 vertices

vn 0.0000 1.0000 -0.0000
vn 0.0000 -1.0000 -0.0000
vn 1.0000 0.0000 -0.0000
vn 0.0000 0.0000 -1.0000
vn -1.0000 0.0000 -0.0000
vn 0.0000 0.0000 1.0000
# 6 vertex normals

vt 0.0000 0.0000 0.0000
# 1 texture coords

o letrero
g letrero
usemtl 02___Default
s off
f 87/2/79 88/2/79 89/2/79 
f 88/2/79 90/2/79 89/2/79 
f 91/2/80 92/2/80 93/2/80 
f 91/2/80 93/2/80 94/2/80 
f 88/2/81 92/2/81 91/2/81 
f 88/2/81 91/2/81 90/2/81 
f 90/2/79 95/2/79 96/2/79 
f 89/2/79 90/2/79 96/2/79 
f 97/2/80 98/2/80 94/2/80 
f 91/2/82 98/2/82 95/2/82 
f 91/2/82 95/2/82 90/2/82 
f 95/2/79 99/2/79 100/2/79 
f 95/2/79 100/2/79 96/2/79 
f 101/2/80 102/2/80 97/2/80 
f 102/2/80 98/2/80 97/2/80 
f 91/2/80 94/2/80 98/2/80 
f 95/2/83 98/2/83 102/2/83 
f 95/2/83 102/2/83 99/2/83 
f 102/2/84 92/2/84 99/2/84 
f 88/2/84 99/2/84 92/2/84 
f 87/2/79 100/2/79 99/2/79 
f 87/2/79 99/2/79 88/2/79 
f 102/2/80 101/2/80 92/2/80 
f 93/2/80 92/2/80 101/2/80 
# 0 polygons - 24 triangles

